<svg xmlns="http://www.w3.org/2000/svg" viewBox="0 0 21.92607 25.25966"><path d="M20.63761,27.655a1.04419,1.04419,0,0,0,.08641-.48135c-.05209-1.57186.02-2.36652.02-4.385a3.84715,3.84715,0,0,0-1.077-2.959c3.556-.391,7.296-1.746,7.296-7.891a6.22062,6.22062,0,0,0-1.635-4.297,5.87756,5.87756,0,0,0-.161-4.235s-1.338-.427-4.381,1.64105a15.05766,15.05766,0,0,0-8,0c-3.061-2.06805-4.4-1.64105-4.4-1.64105a5.70679,5.70679,0,0,0-.141,4.235,6.18016,6.18016,0,0,0-1.645,4.297c0,6.131,3.735,7.506,7.287,7.907a3.38874,3.38874,0,0,0-1.011,2.135,3.40555,3.40555,0,0,1-4.661-1.328,3.34562,3.34562,0,0,0-2.448-1.645s-1.563-.021-.115.968a4.2534,4.2534,0,0,1,1.781,2.339s.938,3.115,5.391,2.151l.015,2.719a.92352.92352,0,0,0,.03845.2381c.06346.21049.27672.636,1.32523.97a7.75156,7.75156,0,0,0,2.48653.23226,8.88144,8.88144,0,0,0,3.03044-.28128A1.4677,1.4677,0,0,0,20.63761,27.655Z" transform="translate(-5.03696 -3.37017)"/></svg>