<?xml version="1.0" encoding="utf-8"?>
<!-- Generator: Adobe Illustrator 24.2.0, SVG Export Plug-In . SVG Version: 6.00 Build 0)  -->
<svg version="1.1" xmlns="http://www.w3.org/2000/svg" xmlns:xlink="http://www.w3.org/1999/xlink" x="0px" y="0px"
	 viewBox="0 0 256 256" style="enable-background:new 0 0 256 256;" xml:space="preserve">
<style type="text/css">
	.st0{fill:#0D778F;}
	.st1{fill:#009EC8;}
	.st2{fill:#D5D74F;}
	.st3{fill:#009DC8;}
	.st4{fill:#183457;}
	.st5{fill:#FFFFFF;}
	.st6{fill:#FAB50A;}
	.st7{fill:#009FC8;}
	.st8{fill:#C81051;}
	.st9{fill:none;}
	.st10{font-family:'MyriadPro-Regular';}
	.st11{font-size:8px;}
	.st12{fill:#C81050;}
</style>
<g id="Capa_1">
	<g id="Monitor">
		<rect x="113.5" y="190.2" class="st0" width="29" height="17.8"/>
		<path class="st1" d="M231.8,190.2H21.2c-3.6,0-6.5-2.9-6.5-6.5v-131c0-3.6,2.9-6.5,6.5-6.5h210.5c3.6,0,6.5,2.9,6.5,6.5v131
			C238.3,187.3,235.4,190.2,231.8,190.2z"/>
		<rect x="14.7" y="54" class="st2" width="223.6" height="128.4"/>
		<path class="st3" d="M177,208H79.2c-5.2,0-9.3,4.2-9.3,9.3v0c-0.2,3.1-0.3,6.3-0.5,9.4c35.9,0,71.7,0,107.6,0
			c3.2-0.1,6.4-0.1,9.6-0.2c-0.1-3-0.2-6.1-0.3-9.1v0C186.3,212.2,182.1,208,177,208z"/>
	</g>
	<g id="Ventana">
		<path class="st4" d="M217.7,41.7H33.6c-2.7,0-4.9-2.2-4.9-4.9V20.6c0-2.7,2.2-4.9,4.9-4.9h184.1c2.7,0,4.9,2.2,4.9,4.9v16.2
			C222.6,39.5,220.4,41.7,217.7,41.7z"/>
		<path class="st5" d="M214,170.3H37.3c-4.8,0-8.6-3.9-8.6-8.6V42.1c0-2.9,0-5.8,0-8.7c64.6,0.1,129.3,0.2,193.9,0.3
			c0,2.8,0,5.6,0,8.4v119.6C222.6,166.5,218.7,170.3,214,170.3z"/>
		<path class="st5" d="M157.8,30.2H39.9c-2,0-3.6-1.6-3.6-3.6v-3.3c0-2,1.6-3.6,3.6-3.6h117.9c2,0,3.6,1.6,3.6,3.6v3.3
			C161.5,28.5,159.8,30.2,157.8,30.2z"/>
		<circle class="st6" cx="195.1" cy="24.4" r="2.6"/>
		<circle class="st7" cx="204.1" cy="24.4" r="2.6"/>
		<circle class="st8" cx="213.6" cy="24.4" r="2.6"/>
	</g>
	<rect x="40.6" y="22.1" class="st9" width="79.2" height="8"/>
	<text transform="matrix(1 0 0 1 40.6453 27.8276)" class="st10 st11">https://Design.to</text>
	<g>
		
			<image style="overflow:visible;" width="1006" height="433" xlink:href="A95214B1.png"  transform="matrix(0.24 0 0 0.24 4.08 5.76)">
		</image>
	</g>
	<g>
		
			<image style="overflow:visible;" width="525" height="635" xlink:href="A95214B3.png"  transform="matrix(0.24 0 0 0.24 4.08 45.6)">
		</image>
	</g>
	<g>
		
			<image style="overflow:visible;" width="750" height="642" xlink:href="A95214B6.png"  transform="matrix(0.24 0 0 0.24 64.32 44.16)">
		</image>
	</g>
</g>
<g id="Lapiz">
	<path class="st12" d="M156,65.9l4.2-6.9c1.1-1.8,0.5-4.1-1.3-5.2l-14.8-8.9c-1.8-1.1-4.1-0.5-5.2,1.3l-4.2,6.9
		c-1.1,1.8-0.5,4.1,1.3,5.2l14.8,8.9C152.6,68.3,154.9,67.7,156,65.9z"/>
	
		<rect x="83.4" y="83" transform="matrix(0.5169 -0.8561 0.8561 0.5169 -22.0138 151.9324)" class="st7" width="80.5" height="24.9"/>
	<path class="st4" d="M149.4,64l-41.6,68.9l-10-6c13.9-23,27.7-45.9,41.6-68.9C142.7,60,146.1,62,149.4,64z"/>
	<path class="st6" d="M92.1,123.5l21.3,12.9c-5.6,4.3-11.2,8.5-16.8,12.8c-2.6-1.6-5.3-3.2-7.9-4.8C89.9,137.4,91,130.5,92.1,123.5z
		"/>
	<path d="M96.6,149.2c-0.9,0.4-2.2,0.9-3.9,1.8c-2.6,1.3-3.5,2.1-4.1,1.7c-0.5-0.4-0.3-1.4-0.1-4.3c0.1-1.7,0.2-3.1,0.2-4
		C91.4,146,94,147.6,96.6,149.2z"/>
	<path d="M96.9,153.3"/>
</g>
<g id="Capa_5">
	<path class="st4" d="M75.5,141.1c-3.6,0-7.2,0-10.8,0c-8.6-14.7-17.2-29.3-25.8-44c9-14.9,18-29.9,27-44.8c3.2-0.1,6.4-0.2,9.6-0.3
		C66.3,67,57.1,81.8,48,96.7C57.1,111.5,66.3,126.3,75.5,141.1z"/>
	<path class="st4" d="M174.1,139.4c3.6,0,7.2,0,10.8,0c8.6-14.7,17.2-29.3,25.8-44c-9-14.9-18-29.9-27-44.8
		c-3.2-0.1-6.4-0.2-9.6-0.3c9.2,14.9,18.3,29.7,27.5,44.6C192.5,109.8,183.3,124.6,174.1,139.4z"/>
</g>
</svg>
