<?xml version="1.0" standalone="no"?>
<!DOCTYPE svg PUBLIC "-//W3C//DTD SVG 20010904//EN"
 "http://www.w3.org/TR/2001/REC-SVG-20010904/DTD/svg10.dtd">
<svg version="1.0" xmlns="http://www.w3.org/2000/svg"
 width="700.000000pt" height="700.000000pt" viewBox="0 0 700.000000 700.000000"
 preserveAspectRatio="xMidYMid meet">
<metadata>
Created by potrace 1.14, written by Peter Selinger 2001-2017
</metadata>
<g transform="translate(0.000000,700.000000) scale(0.100000,-0.100000)"
fill="#000000" stroke="none">
<path d="M2038 4420 l-3 -1525 -33 -68 c-58 -117 -140 -174 -298 -206 -150
-31 -285 -15 -424 50 -35 16 -124 73 -196 124 -72 52 -134 95 -137 95 -5 0
-255 -334 -304 -408 -13 -18 -27 -38 -33 -45 -25 -30 -65 -84 -180 -242 -68
-93 -164 -223 -212 -287 l-87 -117 52 -47 c29 -26 68 -58 87 -73 19 -14 37
-29 40 -32 12 -14 162 -110 230 -146 156 -85 470 -182 670 -207 132 -17 199
-21 385 -20 199 1 232 4 397 39 63 13 249 76 320 108 258 118 506 319 676 549
40 53 72 100 72 103 0 4 9 19 19 34 29 40 105 196 134 276 65 173 96 343 114
620 8 119 7 2934 -1 2942 -3 3 -293 6 -645 7 l-641 2 -2 -1526z m1033 -69 c1
-746 1 -1403 1 -1461 0 -68 -8 -137 -21 -196 -120 -536 -508 -964 -1013 -1118
-419 -128 -905 -80 -1334 133 -77 38 -160 83 -186 101 l-47 31 50 67 c82 110
234 317 352 481 61 84 117 155 124 158 7 3 25 -4 40 -15 43 -30 162 -88 218
-106 111 -36 178 -45 325 -41 170 3 235 18 366 81 159 76 260 193 308 356 l25
83 0 1394 c1 766 3 1396 6 1400 2 4 180 7 394 8 l391 0 1 -1356z"/>
<path d="M3579 5945 c-1 0 -3 -53 -4 -117 -2 -103 0 -118 14 -119 9 0 387 -2
841 -3 l825 -2 80 -33 c111 -45 246 -124 301 -176 6 -5 28 -26 50 -45 188
-170 340 -460 389 -741 18 -99 23 -290 11 -374 -20 -141 -80 -300 -157 -412
-107 -155 -321 -304 -536 -373 -24 -7 -43 -17 -43 -22 0 -10 672 -1351 759
-1515 32 -61 101 -192 151 -290 51 -98 97 -182 101 -188 5 -5 9 -13 9 -17 0
-4 -188 -8 -419 -8 l-419 0 -11 48 c-21 86 -90 290 -132 389 -22 54 -43 107
-46 118 -12 43 -172 345 -228 430 -74 113 -231 270 -346 348 -102 67 -223 125
-340 162 -75 23 -97 25 -209 23 l-125 -3 -1 -752 c0 -414 -3 -755 -5 -757 -2
-3 -231 -6 -509 -8 l-505 -4 -1 -116 c-1 -79 2 -118 10 -120 9 -4 1192 -2
1237 1 14 1 16 73 14 754 -1 413 0 755 2 759 5 9 116 -32 196 -73 139 -70 268
-187 360 -327 138 -206 341 -700 418 -1014 17 -68 29 -98 39 -99 47 -4 1437
-4 1448 -1 8 3 9 9 4 16 -5 6 -25 40 -45 76 -19 36 -168 298 -331 584 -163
285 -296 520 -296 521 0 2 -32 70 -71 151 -39 82 -86 181 -104 219 -43 91
-110 233 -175 370 -93 196 -102 217 -93 224 4 4 28 16 53 26 216 91 448 381
533 665 35 117 47 180 55 301 19 276 -37 544 -163 787 -185 355 -487 595 -870
691 -172 43 -193 44 -967 45 -412 1 -749 1 -749 1z"/>
<path d="M4096 5201 c-2 -3 -3 -58 -2 -121 l1 -115 475 -1 c342 -1 483 -4 504
-13 59 -24 120 -90 161 -176 30 -60 28 -194 -4 -257 -32 -66 -93 -132 -143
-156 -41 -19 -65 -20 -498 -20 -250 -1 -465 -1 -477 -1 -21 -1 -21 -4 -18
-113 2 -62 3 -116 4 -120 1 -7 675 -2 816 7 175 11 302 62 400 160 160 161
194 389 90 600 -44 88 -100 153 -178 208 -154 108 -220 119 -725 122 -221 2
-404 0 -406 -4z"/>
</g>
</svg>
