<svg xmlns="http://www.w3.org/2000/svg" viewBox="0 0 191.88 251.89999"><defs><style>.a{fill:#7d8588;}.b{fill:#717577;}.c{fill:#ffe5bb;}.d{fill:#fabf8c;}.e{fill:#e5e5e4;}.f{fill:#67859f;}.g{fill:#416688;}.h{fill:#cdcccc;}.i{fill:#fedbae;}.j{fill:#0f0906;}.k{fill:#f8b78e;}.l{fill:#fff;}.m{fill:#281710;}.n{fill:#181728;}.o{fill:#292844;}</style></defs><path class="a" d="M201.2,178.8c-5.2,4.7-12.1,17.5-12.1,58a130.55614,130.55614,0,0,0,31.81225-25.1742A38.67016,38.67016,0,0,0,201.2,178.8Z" transform="translate(-29.03226 -2)"/><path class="b" d="M49.5,178.8a40.36405,40.36405,0,0,0-20.46775,33.71613A125.36377,125.36377,0,0,0,61.5,238C61.7,196.6,54.7,183.5,49.5,178.8Z" transform="translate(-29.03226 -2)"/><path class="b" d="M119.1,170.2c-6.4-.1-12.2-.2-15.4-.4L99.9,157l-18,7.8.1.1-.1-.1s-26.6,11.3-32.2,13.9c-.1,0-.1.1-.2.1h0c5.2,4.7,12.2,17.8,12,59.2a131.54463,131.54463,0,0,0,62.8,15.9h.4V167.2C123.4,167.4,121.4,168.6,119.1,170.2Z" transform="translate(-29.03226 -2)"/><path class="a" d="M201.2,178.8c-.1,0-.1-.1-.2-.1-5.5-2.7-32.2-13.9-32.2-13.9l-18-7.8-3.7,12.8c-.8,0-1.6.1-2.5.1-6.6-4.1-19.2-2.9-19.2-2.9a1.26834,1.26834,0,0,0-.6.1v86.7a132.42447,132.42447,0,0,0,64.4-17C189.1,196.3,196,183.5,201.2,178.8Z" transform="translate(-29.03226 -2)"/><path class="c" d="M125,125.5l-22.7-11.4v51.5s8.8,10.5,22.7,10.5c16.5,0,22.7-9.7,22.7-9.7V121.6Z" transform="translate(-29.03226 -2)"/><path class="d" d="M147.8,134.2s-10.9,10-45.5,28.8l.1-33.7Z" transform="translate(-29.03226 -2)"/><path class="e" d="M107.4,181.2s15.9,12.4,38.6-.6l-19.2-11.4C126.9,169.1,106.7,177.4,107.4,181.2Z" transform="translate(-29.03226 -2)"/><path class="f" d="M124.6,168.5v18.3c1.6-.2,3.3-.3,4.9-.5.7-1.1,1.3-2.2,2-3.5a56.50911,56.50911,0,0,0,3.9-9.1C135.4,173.8,130.4,169,124.6,168.5Z" transform="translate(-29.03226 -2)"/><path class="g" d="M124.6,168.5v18.3c-1.7-.2-3.3-.5-5-.7a33.7139,33.7139,0,0,1-1.9-3.2,48.77013,48.77013,0,0,1-3.9-9.1S118.7,169,124.6,168.5Z" transform="translate(-29.03226 -2)"/><path class="h" d="M147.8,153.3c2,2.3,4,4.6,6.1,6.9.4.9-13.7,32.4-13.7,32.4a162.564,162.564,0,0,0-15.7-24.1,127.11625,127.11625,0,0,0,15.7-6.4c2.6-1.3,5.8-2.9,7.1-6.2A16.60049,16.60049,0,0,0,147.8,153.3Z" transform="translate(-29.03226 -2)"/><path class="h" d="M102.3,154.9l-8.1,6c-.4.9,14.5,31.7,14.5,31.7a162.566,162.566,0,0,1,15.7-24.1c-6.2-2.3-11.4-4.4-15.9-6.2-1.9-.8-4.8-2-5.9-4.8A6.29877,6.29877,0,0,1,102.3,154.9Z" transform="translate(-29.03226 -2)"/><path class="c" d="M159.4,82.3s-5.7,44.2-6.9,46.3-23.5,14.3-30.9,13.8V35.5c11.3-1.8,17.1.2,20.2,1.9,1.3.8,6.6,4.1,7.3,4.4,3,1.8,6.4,4,6.9,4.4C158.3,47.8,162.9,53.5,159.4,82.3Z" transform="translate(-29.03226 -2)"/><path class="i" d="M87.2,82.3s5.7,44.2,6.9,46.3,23.5,14.3,30.9,13.8V35.5S78.3,16.1,87.2,82.3Z" transform="translate(-29.03226 -2)"/><path class="c" d="M158.6,108.2s5.6,2.7,10.8-9.7c6.1-14.3,5.7-20.5,0-20.9s-7.7,5-7.7,5Z" transform="translate(-29.03226 -2)"/><path class="i" d="M90.7,107.8s-5.6,2.7-10.8-9.7c-6.1-14.3-5.7-20.5,0-20.9a8.01642,8.01642,0,0,1,3.6.6,8.2178,8.2178,0,0,1,4.1,4.3Z" transform="translate(-29.03226 -2)"/><path class="j" d="M124.7,106.5s17.6-2.9,18.4,21.7l4.4-1.8s3.2-24.2-22.8-23.3v3.4Z" transform="translate(-29.03226 -2)"/><path class="j" d="M124.7,106.5s-17.6-2.9-18.4,21.7l-4.4-1.8s-3.1-24.2,22.8-23.3Z" transform="translate(-29.03226 -2)"/><path class="k" d="M111.9,112.6c-.5-.1-.3,0-.9-.1,0,0,3,9,12.1,9.6.5,0,1,.1,1.6.1v-5.5C121.2,116.5,116.5,114.9,111.9,112.6Z" transform="translate(-29.03226 -2)"/><path class="l" d="M124.7,113.5a71.1876,71.1876,0,0,1-10.1-.5,21.84464,21.84464,0,0,1-3.5-.5c.5.3,1,.5,1.5.8a52.99427,52.99427,0,0,0,12.1,2Z" transform="translate(-29.03226 -2)"/><path class="l" d="M124.7,115.2a52.99466,52.99466,0,0,1-12.1-2,27.21914,27.21914,0,0,0,12.1,3.4Z" transform="translate(-29.03226 -2)"/><path class="k" d="M124.7,113.4V111c-1.2-.9-2.3-.8-5.8-.3-3.8.6-7.8,1.7-7.8,1.7l3.5.5A79.02631,79.02631,0,0,0,124.7,113.4Z" transform="translate(-29.03226 -2)"/><path class="k" d="M111.1,112.4a21.84464,21.84464,0,0,0,3.5.5A28.79526,28.79526,0,0,1,111.1,112.4Z" transform="translate(-29.03226 -2)"/><path class="k" d="M137.4,112.6c.5-.1.3,0,.9-.1,0,0-3,9-12.1,9.6-.5,0-1,.1-1.6.1v-5.5C128.2,116.5,132.9,114.9,137.4,112.6Z" transform="translate(-29.03226 -2)"/><path class="l" d="M124.7,113.5a71.1876,71.1876,0,0,0,10.1-.5,21.84464,21.84464,0,0,0,3.5-.5c-.5.3-1,.5-1.5.8a52.99427,52.99427,0,0,1-12.1,2Z" transform="translate(-29.03226 -2)"/><path class="l" d="M124.7,115.2a52.99483,52.99483,0,0,0,12.1-2,27.21914,27.21914,0,0,1-12.1,3.4Z" transform="translate(-29.03226 -2)"/><path class="k" d="M124.7,113.4V111c1.2-.9,2.3-.8,5.8-.3,3.8.6,7.8,1.7,7.8,1.7l-3.5.5A81.35325,81.35325,0,0,1,124.7,113.4Z" transform="translate(-29.03226 -2)"/><path class="k" d="M138.3,112.4a21.84464,21.84464,0,0,1-3.5.5A33.70818,33.70818,0,0,0,138.3,112.4Z" transform="translate(-29.03226 -2)"/><path class="m" d="M130.7,73.3s-.3-5.2,6.7-5.2,9.6-2.9,14-2.4A6.67712,6.67712,0,0,1,157,70s-5.1-2.9-9.3-.5A34.19509,34.19509,0,0,1,130.7,73.3Z" transform="translate(-29.03226 -2)"/><path class="j" d="M119.3,73.3s.3-5.2-6.7-5.2-9.6-2.9-14-2.4A6.87231,6.87231,0,0,0,93,70s5.1-2.9,9.3-.5A34.195,34.195,0,0,0,119.3,73.3Z" transform="translate(-29.03226 -2)"/><path class="n" d="M108.1,77c-9.1.2-14.1.6-14.1.6s1.7,17.7,8.4,18.4a55.27305,55.27305,0,0,0,5.6.2,53.34469,53.34469,0,0,0,5.6-.2c6.7-.7,8.4-18.4,8.4-18.4S117.1,77.2,108.1,77Z" transform="translate(-29.03226 -2)"/><path class="i" d="M108.1,78.9c-6.6.2-10.2.5-10.2.5s1.2,13.5,6.1,14a28.41449,28.41449,0,0,0,4.1.1c1.3,0,2.6,0,4.1-.1,4.9-.5,6.1-14,6.1-14S114.6,79.1,108.1,78.9Z" transform="translate(-29.03226 -2)"/><path class="o" d="M143.4,77c9.1.2,14.1.6,14.1.6s-1.7,17.7-8.4,18.4a55.27334,55.27334,0,0,1-5.6.2,53.345,53.345,0,0,1-5.6-.2c-6.7-.7-8.4-18.4-8.4-18.4S134.4,77.2,143.4,77Z" transform="translate(-29.03226 -2)"/><path class="c" d="M143.4,78.9c6.6.2,10.2.5,10.2.5s-1.2,13.5-6.1,14a28.41445,28.41445,0,0,1-4.1.1c-1.3,0-2.6,0-4.1-.1-4.9-.5-6.1-14-6.1-14S136.8,79.1,143.4,78.9Z" transform="translate(-29.03226 -2)"/><rect class="n" x="90.76774" y="75.5" width="5.3" height="3"/><rect class="o" x="95.96774" y="75.5" width="5.7" height="3"/><polygon class="m" points="124.768 40.5 137.368 39.6 132.268 85 126.168 43.9 124.768 40.5"/><path class="j" d="M125,124.004a33.33876,33.33876,0,0,1-23.24194-8.31049C90.303,105.32712,91.0722,90.82129,91.2,89L91,93.2,87,80.4l-.7-5.8c.1,2.5.2,5.2.6,8.1,0,0,1.425,11.05,3,22.3625,2.37816,17.08117,1.66033,19.13936,3.9,23.9375,6.34655,13.59651,19.53967,19.32811,21.45806,20.12906a40.89109,40.89109,0,0,0,9.7742,2.70967Q125.01614,137.92137,125,124.004Z" transform="translate(-29.03226 -2)"/><path class="m" d="M156.1,47.1c3.4,6.6,5.2,16.1,3.7,30-.91838,8.51028-1.30151,15.34727-2.7875,20.75-1.64716,5.98864-2.83087,10.29237-5.75443,14.28709C143.78548,122.3476,129.91975,123.7437,125,124.004q.01613,13.91735.03226,27.83468a58.16639,58.16639,0,0,0,19.621-9.21775,38.13822,38.13822,0,0,0,7.49867-7.18633,27.9738,27.9738,0,0,0,4.73164-8.50088,23.81318,23.81318,0,0,0,.94745-4.30974c.65657-5.04923,2.41352-19.89195,4.669-39.924a49.64339,49.64339,0,0,0-.46251-21.875A47.97421,47.97421,0,0,0,156.1,47.1Z" transform="translate(-29.03226 -2)"/><path class="j" d="M94.5,45c-5.496,4.25311-7.25693,8.73969-7.8871,10.83871-.92914,3.09485-.911,6.03161-.88418,10.35669A68.15927,68.15927,0,0,0,86.3,74.6a40.77809,40.77809,0,0,0,.9,7.7c.46477,2.14716.65788,2.168,1.73549,6.24839,1.1258,4.26289,1.4375,6.21853,1.8387,6.19354.22584-.01407.50565-.65737.71035-3.57222L92.3,49.7A52.84719,52.84719,0,0,0,125,57.9V9c-7.9,2.7-11.6,7.3-11.6,7.3,2.8-4.3,7.4-7.6,11.6-10V2.8C93.7,8.3,87,38.6,87,38.6l-5,.6,4.3,35.4C86,60.1,89.5,50.8,94.5,45Z" transform="translate(-29.03226 -2)"/><path class="m" d="M135.1,2a53.448,53.448,0,0,0-10.1.9V6.5A50.2311,50.2311,0,0,1,135.1,2Z" transform="translate(-29.03226 -2)"/><path class="m" d="M156.1,47.1q-.6-1.05-1.2-2.1a13.30428,13.30428,0,0,1,1.4,1.9,19.73589,19.73589,0,0,0,2.5-2.6c10.6-14.1,4.2-29.6,4.2-29.6a22.44125,22.44125,0,0,1-18.8,12.7c.3-6.8,15.2-12.9,15.2-12.9C146.9,7.4,129.6,21,129.6,21c0-6.6,20.9-11.8,20.9-11.8C139.4,6,131,7,125,9V57.9C138.4,57.1,150.2,52,156.1,47.1Z" transform="translate(-29.03226 -2)"/></svg>