<?xml version="1.0" encoding="utf-8"?>
<!-- Generator: Adobe Illustrator 24.2.0, SVG Export Plug-In . SVG Version: 6.00 Build 0)  -->
<svg version="1.1" id="Capa_1" xmlns="http://www.w3.org/2000/svg" xmlns:xlink="http://www.w3.org/1999/xlink" x="0px" y="0px"
	 viewBox="0 0 256 256" style="enable-background:new 0 0 256 256;" xml:space="preserve">
<style type="text/css">
	.st0{display:none;fill:#262626;}
	.st1{display:none;}
	.st2{display:inline;fill:#7D8588;}
	.st3{display:inline;fill:#717577;}
	.st4{display:none;fill:#717577;}
	.st5{fill:#7D8588;}
	.st6{fill:#717577;}
	.st7{fill:#FFE5BB;}
	.st8{fill:#FABF8C;}
	.st9{display:none;fill:#E9E9E9;}
	.st10{fill:#E5E5E4;}
	.st11{fill:#67859F;}
	.st12{display:none;fill:#D3D3D3;}
	.st13{display:none;fill:#F29482;}
	.st14{display:none;fill:#EB5D40;}
	.st15{display:none;fill:#416688;}
	.st16{display:none;fill:#67859F;}
	.st17{fill:#416688;}
	.st18{fill:#CDCCCC;}
	.st19{fill:#FEDBAE;}
	.st20{display:none;fill:#FFE5BB;}
	.st21{fill:#0F0906;}
	.st22{fill:#F8B78E;}
	.st23{fill:#FFFFFF;}
	.st24{fill:#281710;}
	.st25{fill:#181728;}
	.st26{fill:#292844;}
	.st27{display:none;fill:#3B2215;}
	.st28{display:none;fill:#F6871F;}
</style>
<path class="st0" d="M199.5,179.9c-0.1,0-0.1-0.1-0.2-0.1c-5.5-2.7-32.3-13.9-32.3-13.9l-15.8-6.8l-4.8-5.4c0,0.3-0.1,0.6-0.2,0.9
	V136c3.9-2.1,6.8-4,7.6-4.9c0.3-0.2,0.5-0.4,0.6-0.6c0.5-1,2-10.6,3.5-20.9l0,0c0,0,5.6,2.7,10.9-9.7c6.1-14.3,5.7-20.5,0-20.9
	c-4.4-0.3-6.6,2.8-7.3,4.3c0.5-4.5,0.6-8.6,0.5-12.3l3.1-27.7l-6,0.4c8.4-13.5,2.7-27.4,2.7-27.4C155.7,28.9,142.9,29,142.9,29
	c0.3-6.8,15.2-13,15.2-13c-12.5-7.1-29.9,6.5-29.9,6.5c0-6.6,21-11.9,21-11.9c-11.1-3.1-19.5-2.1-25.6-0.1
	c-7.9,2.7-11.6,7.3-11.6,7.3c2.8-4.3,7.4-7.6,11.6-10c5.3-3,10.1-4.4,10.1-4.4c-3.6,0-7,0.3-10.1,0.9C92,9.8,85.4,40.2,85.4,40.2
	l-5.1,0.6l4.3,35.5c0.1,2,0.2,4.1,0.4,6.3c-0.6-1-1.7-2.2-3.3-2.9c-1-0.4-2.2-0.7-3.6-0.6c-5.7,0.4-6.1,6.6,0,20.9
	c4.5,10.6,9.2,10.2,10.5,9.9c1.5,10.3,2.9,20.1,3.5,21.1c0.5,0.8,3.9,3.1,8.5,5.5v16.8c0-0.1,0-0.2-0.1-0.3c0,0-1.9,2.6-4.5,5.9
	l-16.2,7l0.1,0.1l-0.1-0.1c0,0-26.7,11.3-32.3,13.9c-0.1,0-0.1,0.1-0.2,0.1c-6.7,3.6-9.8,25.8-11.3,43.4c7.1,6.3,15,11.8,23.4,16.4
	c15.8,8.7,33.7,14.3,52.7,15.9c3.6,0.3,7.3,0.5,11,0.5c0.3,0,0.6,0,0.9,0c4,0,8-0.2,11.9-0.6c18.5-1.8,35.9-7.4,51.4-16.1
	c8.4-4.7,16.2-10.2,23.3-16.6C209.3,205.2,206.2,183.4,199.5,179.9z"/>
<g>
	<g class="st1">
		<path class="st2" d="M201,178.8c-5.2,4.7-12.1,17.5-12.1,58c8.2-4.6,15.8-10.1,22.8-16.3C210.4,203.2,207.5,182.3,201,178.8z"/>
		<path class="st3" d="M49.3,178.8c-6.7,3.6-9.8,25.5-11.2,43C45.2,228,53,233.4,61.3,238C61.5,196.6,54.5,183.5,49.3,178.8z"/>
		<path class="st3" d="M118.9,170.2c-6.4-0.1-12.2-0.2-15.4-0.4L99.7,157l-18,7.8l0.1,0.1l-0.1-0.1c0,0-26.6,11.3-32.2,13.9
			c-0.1,0-0.1,0.1-0.2,0.1l0,0c5.2,4.7,12.2,17.8,12,59.2c18.7,10.1,40,15.9,62.8,15.9c0.1,0,0.3,0,0.4,0v-86.7
			C123.2,167.4,121.2,168.6,118.9,170.2z"/>
		<path class="st2" d="M201,178.8c-0.1,0-0.1-0.1-0.2-0.1c-5.5-2.7-32.2-13.9-32.2-13.9l-18-7.8l-3.7,12.8c-0.8,0-1.6,0.1-2.5,0.1
			c-6.6-4.1-19.2-2.9-19.2-2.9c-0.2,0-0.4,0-0.6,0.1v86.7c23.4-0.1,45.3-6.3,64.4-17C188.9,196.3,195.8,183.5,201,178.8z"/>
	</g>
	<g>
		<path class="st4" d="M188.4,237.1c3.8-2.1,7.9-4.6,12.1-7.5c8.5-6,15.2-12.3,20.4-18c-0.1-3.7-1-12.1-6.6-20.7
			c-4.7-7.2-10.7-11.2-13.9-13C195.2,182.6,188.2,195.7,188.4,237.1z"/>
		<path class="st5" d="M201.2,178.8c-5.2,4.7-12.1,17.5-12.1,58c3.8-2.1,7.8-4.6,11.8-7.6c8.2-5.9,14.8-12,20-17.6
			c-0.1-3.6-0.8-12.2-6.6-20.7C209.8,184.2,204.3,180.6,201.2,178.8z"/>
		<path class="st6" d="M49.5,178.8c-3.2,1.8-9.1,5.8-13.9,13c-5.6,8.6-6.4,17-6.6,20.7c5.2,5.7,11.9,12,20.4,18
			c4.2,2.9,8.2,5.4,12.1,7.5C61.7,196.6,54.7,183.5,49.5,178.8z"/>
		<path class="st6" d="M119.1,170.2c-6.4-0.1-12.2-0.2-15.4-0.4L99.9,157l-18,7.8l0.1,0.1l-0.1-0.1c0,0-26.6,11.3-32.2,13.9
			c-0.1,0-0.1,0.1-0.2,0.1l0,0c5.2,4.7,12.2,17.8,12,59.2c18.7,10.1,40,15.9,62.8,15.9c0.1,0,0.3,0,0.4,0v-86.7
			C123.4,167.4,121.4,168.6,119.1,170.2z"/>
		<path class="st5" d="M201.2,178.8c-0.1,0-0.1-0.1-0.2-0.1c-5.5-2.7-32.2-13.9-32.2-13.9l-18-7.8l-3.7,12.8c-0.8,0-1.6,0.1-2.5,0.1
			c-6.6-4.1-19.2-2.9-19.2-2.9c-0.2,0-0.4,0-0.6,0.1v86.7c23.4-0.1,45.3-6.3,64.4-17C189.1,196.3,196,183.5,201.2,178.8z"/>
	</g>
	<path class="st7" d="M125,125.5l-22.7-11.4v51.5c0,0,8.8,10.5,22.7,10.5c16.5,0,22.7-9.7,22.7-9.7v-44.8L125,125.5z"/>
	<path class="st8" d="M147.8,134.2c0,0-10.9,10-45.5,28.8l0.1-33.7L147.8,134.2z"/>
	<g>
		<path class="st9" d="M199.9,180.5c-0.1,0-0.1-0.1-0.2-0.1c-5.5-2.7-32.2-13.9-32.2-13.9l-18-7.8l-3.7,12.8
			c-10.2,0.5-20-0.1-20-0.1l-0.1,17.5h3.8c3.4,9.6,5.9,45.2,7.1,66.9c18.5-1.8,35.8-7.4,51.3-16
			C187.7,198.3,194.7,185.2,199.9,180.5z"/>
		<path class="st10" d="M107.4,181.2c0,0,15.9,12.4,38.6-0.6l-19.2-11.4C126.9,169.1,106.7,177.4,107.4,181.2z"/>
		<g>
			<path class="st11" d="M124.6,168.5c0,6.1,0,12.2,0,18.3c1.6-0.2,3.3-0.3,4.9-0.5c0.7-1.1,1.3-2.2,2-3.5c1.7-3.2,3-6.3,3.9-9.1
				C135.4,173.8,130.4,169,124.6,168.5z"/>
			<path class="st12" d="M124.7,188.9v-18c0,0-12.1,1.1-22.3,0.7l-3.7-12.8l-18,7.8l0.1,0.1l-0.1-0.1c0,0-26.6,11.3-32.2,13.9
				c-0.1,0-0.1,0.1-0.2,0.1c5.2,4.8,12.2,17.9,12,59.6c15.8,8.7,33.6,14.2,52.5,15.8c1.2-21.7,3.7-57.4,7.1-67L124.7,188.9
				L124.7,188.9z"/>
			<path class="st13" d="M199.9,180.5c-5.2,4.7-12.2,17.8-12,59.3c8.3-4.7,16.1-10.2,23.2-16.5C209.7,205.8,206.6,184.1,199.9,180.5
				z"/>
			<path class="st14" d="M48.2,180.5c-6.7,3.6-9.8,25.7-11.2,43.3c7.1,6.2,14.9,11.8,23.3,16.4C60.5,198.3,53.5,185.2,48.2,180.5z"
				/>
			<path class="st15" d="M120.9,186.3c-3.4,9.6-5.9,45.3-7.1,67c3.6,0.3,7.3,0.5,11,0.5c0.3,0,0.6,0,0.9,0v-67.5H120.9z"/>
			<path class="st16" d="M126.9,186.3h-1v67.5c4,0,8-0.2,11.9-0.6c-1.2-21.7-3.7-57.3-7.1-66.9L126.9,186.3L126.9,186.3z"/>
			<path class="st17" d="M124.6,168.5c0,6.1,0,12.2,0,18.3c-1.7-0.2-3.3-0.5-5-0.7c-0.7-1-1.3-2.1-1.9-3.2c-1.8-3.2-3-6.3-3.9-9.1
				C113.8,173.8,118.7,169,124.6,168.5z"/>
		</g>
		<path class="st18" d="M147.8,153.3c2,2.3,4,4.6,6.1,6.9c0.4,0.9-13.7,32.4-13.7,32.4s-6.9-13.3-15.7-24.1c4.5-1.5,10-3.6,15.7-6.4
			c2.6-1.3,5.8-2.9,7.1-6.2C147.6,154.9,147.7,154,147.8,153.3z"/>
		<path class="st18" d="M102.3,154.9c-2.7,2-5.4,4-8.1,6c-0.4,0.9,14.5,31.7,14.5,31.7s6.9-13.3,15.7-24.1
			c-6.2-2.3-11.4-4.4-15.9-6.2c-1.9-0.8-4.8-2-5.9-4.8C102.3,156.5,102.2,155.6,102.3,154.9z"/>
	</g>
	<path class="st7" d="M159.4,82.3c0,0-5.7,44.2-6.9,46.3s-23.5,14.3-30.9,13.8V35.5c11.3-1.8,17.1,0.2,20.2,1.9
		c1.3,0.8,6.6,4.1,7.3,4.4c3,1.8,6.4,4,6.9,4.4C158.3,47.8,162.9,53.5,159.4,82.3z"/>
	<path class="st19" d="M87.2,82.3c0,0,5.7,44.2,6.9,46.3c1.2,2.1,23.5,14.3,30.9,13.8V35.5C125,35.5,78.3,16.1,87.2,82.3z"/>
	<path class="st7" d="M158.6,108.2c0,0,5.6,2.7,10.8-9.7c6.1-14.3,5.7-20.5,0-20.9s-7.7,5-7.7,5L158.6,108.2z"/>
	<path class="st20" d="M156,107.8c0,0,5.6,2.7,10.8-9.7c6.1-14.3,5.7-20.5,0-20.9s-7.7,5-7.7,5L156,107.8z"/>
	<path class="st20" d="M159.3,107.8c0,0,5.6,2.7,10.8-9.7c6.1-14.3,5.7-20.5,0-20.9s-7.7,5-7.7,5L159.3,107.8z"/>
	<path class="st19" d="M90.7,107.8c0,0-5.6,2.7-10.8-9.7c-6.1-14.3-5.7-20.5,0-20.9c1.4-0.1,2.6,0.2,3.6,0.6c3,1.3,4.1,4.3,4.1,4.3
		L90.7,107.8z"/>
	<g>
		<path class="st21" d="M124.7,106.5c0,0,17.6-2.9,18.4,21.7l4.4-1.8c0,0,3.2-24.2-22.8-23.3L124.7,106.5L124.7,106.5z"/>
		<path class="st21" d="M124.7,106.5c0,0-17.6-2.9-18.4,21.7l-4.4-1.8c0,0-3.1-24.2,22.8-23.3V106.5z"/>
	</g>
	<path class="st14" d="M102.2,151c0,0-3.4,4.7-7.4,9.5c-3.6,4.3,20.2,27.6,20.2,27.6s1.9-9,10.8-19.8
		C125.7,168.2,103.3,159.4,102.2,151z"/>
	<path class="st13" d="M147.9,151.7l7.3,8.2c3.5,4.3-17.7,28.2-17.7,28.2s-2.9-9-11.8-19.8C125.7,168.2,146.8,160.1,147.9,151.7z"/>
	<g>
		<g>
			<path class="st22" d="M111.9,112.6c-0.5-0.1-0.3,0-0.9-0.1c0,0,3,9,12.1,9.6c0.5,0,1,0.1,1.6,0.1v-5.5
				C121.2,116.5,116.5,114.9,111.9,112.6z"/>
			<path class="st23" d="M124.7,113.5c-4,0.1-7.6-0.2-10.1-0.5c-2.4-0.2-3.5-0.5-3.5-0.5c0.5,0.3,1,0.5,1.5,0.8
				c4.8,1.3,8.8,1.9,12.1,2V113.5z"/>
			<path class="st23" d="M124.7,115.2c-3.3-0.1-7.3-0.7-12.1-2c4.5,2.4,8.6,3.3,12.1,3.4V115.2z"/>
			<path class="st22" d="M124.7,113.4V111c-1.2-0.9-2.3-0.8-5.8-0.3c-3.8,0.6-7.8,1.7-7.8,1.7s1.4,0.2,3.5,0.5
				C116.8,113.2,120.1,113.4,124.7,113.4z"/>
			<path class="st22" d="M111.1,112.4c0,0,1.1,0.3,3.5,0.5C112.4,112.7,111.1,112.4,111.1,112.4z"/>
		</g>
		<g>
			<path class="st22" d="M137.4,112.6c0.5-0.1,0.3,0,0.9-0.1c0,0-3,9-12.1,9.6c-0.5,0-1,0.1-1.6,0.1v-5.5
				C128.2,116.5,132.9,114.9,137.4,112.6z"/>
			<path class="st23" d="M124.7,113.5c4,0.1,7.6-0.2,10.1-0.5c2.4-0.2,3.5-0.5,3.5-0.5c-0.5,0.3-1,0.5-1.5,0.8
				c-4.8,1.3-8.8,1.9-12.1,2C124.7,115.3,124.7,113.5,124.7,113.5z"/>
			<path class="st23" d="M124.7,115.2c3.3-0.1,7.3-0.7,12.1-2c-4.5,2.4-8.6,3.3-12.1,3.4C124.7,116.6,124.7,115.2,124.7,115.2z"/>
			<path class="st22" d="M124.7,113.4V111c1.2-0.9,2.3-0.8,5.8-0.3c3.8,0.6,7.8,1.7,7.8,1.7s-1.4,0.2-3.5,0.5
				C132.5,113.2,129.2,113.4,124.7,113.4z"/>
			<path class="st22" d="M138.3,112.4c0,0-1.1,0.3-3.5,0.5C136.9,112.7,138.3,112.4,138.3,112.4z"/>
		</g>
	</g>
	<path class="st24" d="M130.7,73.3c0,0-0.3-5.2,6.7-5.2s9.6-2.9,14-2.4S157,70,157,70s-5.1-2.9-9.3-0.5
		C143.5,71.8,137,73.6,130.7,73.3z"/>
	<path class="st21" d="M119.3,73.3c0,0,0.3-5.2-6.7-5.2s-9.6-2.9-14-2.4C94.3,66.2,93,70,93,70s5.1-2.9,9.3-0.5
		C106.5,71.8,113,73.6,119.3,73.3z"/>
	<g>
		<g>
			<path class="st25" d="M108.1,77C99,77.2,94,77.6,94,77.6s1.7,17.7,8.4,18.4c2.1,0.2,3.8,0.2,5.6,0.2c1.9,0,3.6,0,5.6-0.2
				c6.7-0.7,8.4-18.4,8.4-18.4S117.1,77.2,108.1,77z"/>
			<path class="st19" d="M108.1,78.9c-6.6,0.2-10.2,0.5-10.2,0.5s1.2,13.5,6.1,14c1.5,0.2,2.7,0.1,4.1,0.1c1.3,0,2.6,0,4.1-0.1
				c4.9-0.5,6.1-14,6.1-14S114.6,79.1,108.1,78.9z"/>
		</g>
		<g>
			<path class="st26" d="M143.4,77c9.1,0.2,14.1,0.6,14.1,0.6s-1.7,17.7-8.4,18.4c-2.1,0.2-3.8,0.2-5.6,0.2c-1.9,0-3.6,0-5.6-0.2
				c-6.7-0.7-8.4-18.4-8.4-18.4S134.4,77.2,143.4,77z"/>
			<path class="st7" d="M143.4,78.9c6.6,0.2,10.2,0.5,10.2,0.5s-1.2,13.5-6.1,14c-1.5,0.2-2.7,0.1-4.1,0.1c-1.3,0-2.6,0-4.1-0.1
				c-4.9-0.5-6.1-14-6.1-14S136.8,79.1,143.4,78.9z"/>
		</g>
		<g>
			<rect x="119.8" y="77.5" class="st25" width="5.3" height="3"/>
			<rect x="125" y="77.5" class="st26" width="5.7" height="3"/>
		</g>
	</g>
	<path class="st14" d="M165.2,102.3c0,1.2-1,2.2-2.2,2.2s-2.2-1-2.2-2.2s1-2.2,2.2-2.2C164.3,100.1,165.2,101.1,165.2,102.3z"/>
	<path class="st14" d="M88.3,102.3c0,1.2-1,2.2-2.2,2.2s-2.2-1-2.2-2.2s1-2.2,2.2-2.2C87.3,100.1,88.3,101.1,88.3,102.3z"/>
	<g>
		<polygon class="st24" points="153.8,42.5 166.4,41.6 161.3,87 155.2,45.9 		"/>
		<path class="st21" d="M125,124c-2.4,0.1-13.7,0.3-23.2-8.3C90.3,105.3,91.1,90.8,91.2,89L91,93.2l-4-12.8l-0.7-5.8
			c0.1,2.5,0.2,5.2,0.6,8.1c0,0,1.4,11.1,3,22.4c2.4,17.1,1.7,19.1,3.9,23.9c6.3,13.6,19.5,19.3,21.5,20.1c3.9,1.6,7.3,2.3,9.8,2.7
			C125,142.6,125,133.3,125,124z"/>
		<path class="st24" d="M156.1,47.1c3.4,6.6,5.2,16.1,3.7,30c-0.9,8.5-1.3,15.3-2.8,20.8c-1.6,6-2.8,10.3-5.8,14.3
			c-7.5,10.2-21.3,11.6-26.3,11.9c0,9.3,0,18.6,0,27.8c5.4-1.4,12.8-4.1,19.6-9.2c3.9-2.9,6.2-5.5,7.5-7.2c3.3-4.3,4.5-7.7,4.7-8.5
			c0.6-2,0.9-3.6,0.9-4.3c0.7-5,2.4-19.9,4.7-39.9c0.9-4.8,1.9-12.7-0.5-21.9C160.5,54.9,158.1,50.3,156.1,47.1z"/>
		<path class="st21" d="M94.5,45c-5.5,4.3-7.3,8.7-7.9,10.8c-0.9,3.1-0.9,6-0.9,10.4c0,3.5,0.3,6.4,0.6,8.4c0.1,3.3,0.5,5.9,0.9,7.7
			c0.5,2.1,0.7,2.2,1.7,6.2c1.1,4.3,1.4,6.2,1.8,6.2c0.2,0,0.5-0.7,0.7-3.6c0.3-13.8,0.5-27.6,0.8-41.5c10.6,6.9,22.2,8.9,32.7,8.2
			V9c-7.9,2.7-11.6,7.3-11.6,7.3c2.8-4.3,7.4-7.6,11.6-10V2.8C93.7,8.3,87,38.6,87,38.6l-5,0.6l4.3,35.4C86,60.1,89.5,50.8,94.5,45z
			"/>
		<path class="st24" d="M135.1,2c-3.6,0-7,0.3-10.1,0.9v3.6C130.3,3.4,135.1,2,135.1,2z"/>
		<path class="st24" d="M156.1,47.1c-0.4-0.7-0.8-1.4-1.2-2.1c0.5,0.6,1,1.2,1.4,1.9c1-0.9,1.9-1.8,2.5-2.6
			c10.6-14.1,4.2-29.6,4.2-29.6c-6,12.5-18.8,12.7-18.8,12.7c0.3-6.8,15.2-12.9,15.2-12.9c-12.5-7.1-29.8,6.5-29.8,6.5
			c0-6.6,20.9-11.8,20.9-11.8C139.4,6,131,7,125,9v48.9C138.4,57.1,150.2,52,156.1,47.1z"/>
		<path class="st27" d="M91,93.2l0.1-4.2c-0.9-6.8-1.6-11.9-1.6-11.9c-1.7-15.4,0.7-25.5,4.9-32.1c-5,5.8-8.5,15.1-8.1,29.6l0.7,5.8
			L91,93.2z"/>
	</g>
</g>
<path class="st4" d="M103.6,186.7c-3.2,1.8-9.1,5.8-13.9,13c-5.6,8.6-6.4,17-6.6,20.7c5.2,5.7,11.9,12,20.4,18
	c4.2,2.9,8.2,5.4,12.1,7.5C115.8,204.5,108.8,191.4,103.6,186.7z"/>
<path class="st28" d="M124.8,151.8c2.4-0.4,5.9-1.1,9.8-2.7c1.9-0.8,15.1-6.5,21.5-20.1c2.2-4.8,1.5-6.9,3.9-23.9
	c1.6-11.3,3-22.4,3-22.4c0.4-2.9,0.5-5.6,0.6-8.1l-0.7,5.8l-4,12.8l-0.2-4.2c0.1,1.8,0.9,16.3-10.6,26.7c-9.5,8.6-20.9,8.4-23.2,8.3
	C124.9,133.2,124.8,142.5,124.8,151.8z"/>
</svg>
