<?xml version="1.0" encoding="utf-8"?>
<!-- Generator: Adobe Illustrator 24.2.0, SVG Export Plug-In . SVG Version: 6.00 Build 0)  -->
<svg version="1.1" xmlns="http://www.w3.org/2000/svg" xmlns:xlink="http://www.w3.org/1999/xlink" x="0px" y="0px"
	 viewBox="0 0 256 256" style="enable-background:new 0 0 256 256;" xml:space="preserve">
<style type="text/css">
	.st0{fill:#0D778F;}
	.st1{fill:#009EC8;}
	.st2{fill:#D5D74F;}
	.st3{fill:#009DC8;}
	.st4{fill:#183457;}
	.st5{fill:#FFFFFF;}
	.st6{fill:#FAB50A;}
	.st7{fill:#009FC8;}
	.st8{fill:#C81051;}
	.st9{fill:none;}
	.st10{font-family:'ArialMT';}
	.st11{font-size:8px;}
	.st12{display:none;}
	.st13{display:inline;fill:#C81050;}
	.st14{display:inline;fill:#009FC8;}
	.st15{display:inline;fill:#183457;}
	.st16{display:inline;fill:#FAB50A;}
	.st17{display:inline;}
	.st18{fill:#F9B50D;}
	.st19{display:none;fill:#FFFFFF;}
	.st20{fill:#06527A;}
	.st21{fill:#009EC7;}
	.st22{display:none;fill:#C71252;}
	.st23{display:inline;fill:#06527A;}
	.st24{display:inline;fill:#009EC7;}
	.st25{display:none;fill:#06527A;}
	.st26{display:none;fill:#A1182D;}
	.st27{display:none;fill:#F9B50D;}
	.st28{fill:#C71252;}
	.st29{fill:#1190C9;}
</style>
<g id="Capa_1">
	<g id="Capa_1_1_">
		<g id="Monitor">
			<rect x="113.5" y="190.2" class="st0" width="29" height="17.8"/>
			<path class="st1" d="M231.8,190.2H21.2c-3.6,0-6.5-2.9-6.5-6.5v-131c0-3.6,2.9-6.5,6.5-6.5h210.5c3.6,0,6.5,2.9,6.5,6.5v131
				C238.3,187.3,235.4,190.2,231.8,190.2z"/>
			<rect x="14.7" y="54" class="st2" width="223.6" height="128.4"/>
			<path class="st3" d="M177,208H79.2c-5.2,0-9.3,4.2-9.3,9.3l0,0c-0.2,3.1-0.3,6.3-0.5,9.4c35.9,0,71.7,0,107.6,0
				c3.2-0.1,6.4-0.1,9.6-0.2c-0.1-3-0.2-6.1-0.3-9.1l0,0C186.3,212.2,182.1,208,177,208z"/>
		</g>
		<g id="Ventana">
			<path class="st4" d="M217.7,41.7H33.6c-2.7,0-4.9-2.2-4.9-4.9V20.6c0-2.7,2.2-4.9,4.9-4.9h184.1c2.7,0,4.9,2.2,4.9,4.9v16.2
				C222.6,39.5,220.4,41.7,217.7,41.7z"/>
			<path class="st5" d="M214,170.3H37.3c-4.8,0-8.6-3.9-8.6-8.6V42.1c0-2.9,0-5.8,0-8.7c64.6,0.1,129.3,0.2,193.9,0.3
				c0,2.8,0,5.6,0,8.4v119.6C222.6,166.5,218.7,170.3,214,170.3z"/>
			<path class="st5" d="M157.8,30.2H39.9c-2,0-3.6-1.6-3.6-3.6v-3.3c0-2,1.6-3.6,3.6-3.6h117.9c2,0,3.6,1.6,3.6,3.6v3.3
				C161.5,28.5,159.8,30.2,157.8,30.2z"/>
			<circle class="st6" cx="195.1" cy="24.4" r="2.6"/>
			<circle class="st7" cx="204.1" cy="24.4" r="2.6"/>
			<circle class="st8" cx="213.6" cy="24.4" r="2.6"/>
		</g>
		<rect x="40.6" y="22.1" class="st9" width="79.2" height="8"/>
		<text transform="matrix(1 0 0 1 40.6453 27.8276)" class="st10 st11">https://Create.to</text>
		<g class="st12">
			
				<image style="display:inline;overflow:visible;enable-background:new    ;" width="1008" height="438" xlink:href="A95214B1.png"  transform="matrix(0.2392 0 0 0.2392 4.2605 5.3427)">
			</image>
		</g>
		<g class="st12">
			
				<image style="display:inline;overflow:visible;enable-background:new    ;" width="529" height="638" xlink:href="A95214B3.png"  transform="matrix(0.2386 0 0 0.2386 3.9724 45.6891)">
			</image>
		</g>
		<g class="st12">
			
				<image style="display:inline;overflow:visible;enable-background:new    ;" width="754" height="646" xlink:href="A95214B6.png"  transform="matrix(0.2386 0 0 0.2386 64.354 44.1203)">
			</image>
		</g>
	</g>
	<g id="Lapiz" class="st12">
		<path class="st13" d="M156,65.9l4.2-6.9c1.1-1.8,0.5-4.1-1.3-5.2l-14.8-8.9c-1.8-1.1-4.1-0.5-5.2,1.3l-4.2,6.9
			c-1.1,1.8-0.5,4.1,1.3,5.2l14.8,8.9C152.6,68.3,154.9,67.7,156,65.9z"/>
		
			<rect x="83.4" y="82.9" transform="matrix(0.5169 -0.8561 0.8561 0.5169 -21.92 151.9603)" class="st14" width="80.5" height="24.9"/>
		<path class="st15" d="M149.4,64l-41.6,68.9l-10-6c13.9-23,27.7-45.9,41.6-68.9C142.7,60,146.1,62,149.4,64z"/>
		<path class="st16" d="M92.1,123.5l21.3,12.9c-5.6,4.3-11.2,8.5-16.8,12.8c-2.6-1.6-5.3-3.2-7.9-4.8
			C89.9,137.4,91,130.5,92.1,123.5z"/>
		<path class="st17" d="M96.6,149.2c-0.9,0.4-2.2,0.9-3.9,1.8c-2.6,1.3-3.5,2.1-4.1,1.7c-0.5-0.4-0.3-1.4-0.1-4.3
			c0.1-1.7,0.2-3.1,0.2-4C91.4,146,94,147.6,96.6,149.2z"/>
		<path class="st17" d="M96.9,153.3"/>
	</g>
	<g id="Capa_5" class="st12">
		<path class="st15" d="M69.5,141.1c-3.6,0-7.2,0-10.8,0c-8.6-14.7-17.2-29.3-25.8-44c9-14.9,18-29.9,27-44.8
			c3.2-0.1,6.4-0.2,9.6-0.3C60.3,67,51.1,81.8,42,96.7C51.1,111.5,60.3,126.3,69.5,141.1z"/>
		<path class="st15" d="M181.1,139.4c3.6,0,7.2,0,10.8,0c8.6-14.7,17.2-29.3,25.8-44c-9-14.9-18-29.9-27-44.8
			c-3.2-0.1-6.4-0.2-9.6-0.3c9.2,14.9,18.3,29.7,27.5,44.6C199.5,109.8,190.3,124.6,181.1,139.4z"/>
	</g>
	<circle class="st18" cx="128" cy="78.3" r="32.2"/>
	<g id="DB">
		<g>
			<path class="st19" d="M124.6,171.8c-27,0-54.1,0-81.1,0c-1.1,0-1.3-0.2-1.3-1.3c0-54.2,0-108.4,0-162.5c0-1.2,0.3-1.4,1.4-1.4
				c54.1,0,108.3,0,162.4,0c1.1,0,1.4,0.2,1.4,1.4c0,54.1,0,108.3,0,162.4c0,1.3-0.4,1.5-1.5,1.5
				C178.8,171.8,151.7,171.8,124.6,171.8z M154.5,80.3c2,0,3.9-0.1,5.9-0.1c0.9,0,1.5-0.3,1.5-1.2c0-1-0.6-1.4-1.6-1.4
				c-0.9,0-1.8,0-2.7,0c-0.6,0-1-0.1-0.8-0.8c4.1-6,6.1-12.7,6.4-19.9c0.1-3.5,0-6.9-1.2-10.3c0-0.8-0.1-1.7,0-2.5
				c0.3-3.2-0.9-5.6-3.6-7.3c-7.8-13.1-19.3-20.1-34.6-19.8c-14.9,0.3-25.8,7.7-33.3,20.5c-0.7,0.4-1.4,0.8-2.1,1.2
				c-0.6,0.3-1.2,0.6-1.2,1.4c0,0.9,0.6,1.2,1.3,1.4c-0.4,1.3-0.8,2.5-1.2,3.8c-1.9,7-2,14,0.2,21c-0.5,2-0.1,4-0.3,6
				c-0.4,4.2,2.2,8,7.5,7.8c0.1,0.1,0.1,0.2,0.2,0.3c6.9,7.8,15.4,12.5,25.8,13.6c0.9,0.1,1.5,0.3,1.4,1.4c-0.1,1.3-0.1,2.7-0.1,4
				c-14.4,0-28.7,0-43.1,0c-3.7,0-5.8,2.1-5.8,5.8c0,6.3,0.1,12.6,0,18.9c-0.1,3.2,1.1,5.3,4.1,6.3c-3,1.1-4.2,3.3-4.1,6.5
				c0.1,6.2,0,12.5,0,18.7c0,3.7,2,5.8,5.8,5.8c30.5,0,60.9,0,91.4,0c3.8,0,5.8-2,5.8-5.8c0-6.2-0.1-12.5,0-18.7
				c0.1-3.2-1.1-5.4-4.1-6.5c3-1.1,4.1-3.2,4.1-6.3c-0.1-6.2,0-12.5,0-18.7c0-3.9-2-5.9-5.9-5.9c-14.3,0-28.6,0-42.9,0
				c0-1.3,0.1-2.6-0.1-3.9c-0.1-1.3,0.4-1.5,1.5-1.6C139.2,93,147.7,88.2,154.5,80.3z M84.7,45.4c0-1,0-1.9,0-2.9
				c-0.2-3.4-3-6.1-6.4-6.1s-6.3,2.7-6.4,6.1c-0.1,1.9-0.1,3.9,0,5.8c0.1,3.4,3,6.1,6.4,6.1s6.3-2.7,6.4-6.1
				C84.8,47.3,84.7,46.3,84.7,45.4z M164.6,71.1c0,0.9,0,1.8,0,2.7c0.1,3.6,2.9,6.4,6.5,6.4c3.5,0,6.3-2.8,6.4-6.4
				c0-1.8,0-3.5,0-5.3c-0.1-3.6-2.9-6.4-6.5-6.4c-3.5,0-6.3,2.8-6.4,6.3C164.5,69.4,164.6,70.2,164.6,71.1z M169.7,39.8
				c0,3.1,0,5.9,0,8.7c0,3.3,0,3.3-3.2,3.4c-0.2,0-0.3,0-0.5,0c-0.8,0-1.4,0.4-1.4,1.2c0,0.9,0.6,1.3,1.5,1.3c3.3,0,6.6,0,10,0
				c0.8,0,1.4-0.4,1.4-1.2c0-0.9-0.6-1.3-1.5-1.3c-0.8,0-1.5-0.1-2.2,0c-1.1,0.1-1.5-0.2-1.4-1.4c0.1-4.1,0-8.3,0-12.4
				c0-1.5-0.8-2-2.2-1.4c-1.6,0.7-3.1,1.5-4.6,2.3c-0.8,0.4-1.2,1-0.8,1.8s1.1,0.9,1.9,0.5C167.6,40.8,168.5,40.4,169.7,39.8z
				 M77,65.6c0,3.9,0,7.6,0,11.3c0,0.7-0.4,0.8-0.9,0.7c-1,0-1.9,0-2.9,0c-0.7,0-1.2,0.5-1.3,1.2c0,0.8,0.5,1.3,1.3,1.3
				c3.4,0,6.9,0,10.3,0c0.7,0,1.2-0.5,1.2-1.2c0-0.8-0.5-1.3-1.3-1.3c-0.6,0-1.3-0.1-1.9,0c-1.4,0.2-1.9-0.2-1.9-1.8
				c0.1-4,0.1-8,0-11.9c0-1.6-0.8-2.1-2.3-1.4c-1.5,0.7-2.9,1.4-4.3,2.2c-0.8,0.4-1.4,0.9-1,1.9c0.5,0.9,1.2,0.9,2.1,0.4
				C75,66.6,75.9,66.1,77,65.6z"/>
			<rect x="82.1" y="135.5" class="st20" width="93.1" height="20.9"/>
			<path class="st21" d="M175.4,130.5c3,1.1,4.2,3.3,4.1,6.5c-0.1,6.2,0,12.5,0,18.7c0,3.7-2,5.8-5.8,5.8c-30.5,0-60.9,0-91.4,0
				c-3.8,0-5.8-2-5.8-5.8c0-6.2,0.1-12.5,0-18.7c-0.1-3.2,1.1-5.4,4.1-6.5C112.1,130.5,143.8,130.5,175.4,130.5z M122.9,140.9
				c-4.2,0-8.5,0-12.7,0c-1.9,0-2.9,1-2.9,2.9c0,1.6,0,3.1,0,4.7c0,1.7,1,2.7,2.7,2.8c8.5,0,17,0,25.6,0c1.6,0,2.6-1,2.6-2.6
				c0.1-1.4,0-2.8,0-4.2c0-2.7-0.8-3.5-3.4-3.5C130.9,140.9,126.9,140.9,122.9,140.9z M91.8,153.8c4.2,0,7.8-3.4,7.8-7.6
				c0.1-4.3-3.4-7.9-7.6-7.9s-7.8,3.4-7.8,7.6C84.1,150.1,87.6,153.7,91.8,153.8z M151.1,146c0-0.9,0.1-1.8,0-2.7
				c-0.1-1.4-1.2-2.4-2.5-2.4c-1.4,0-2.5,1-2.5,2.4c-0.1,1.8-0.1,3.6,0,5.5c0.1,1.4,1.1,2.4,2.5,2.5c1.4,0,2.5-1,2.6-2.5
				C151.2,147.8,151.1,146.9,151.1,146z M161.4,146c0-0.9,0.1-1.8,0-2.7c-0.1-1.4-1.2-2.4-2.6-2.4c-1.4,0-2.5,1-2.5,2.4
				c-0.1,1.8-0.1,3.6,0,5.5c0.1,1.4,1.1,2.4,2.5,2.5c1.4,0,2.5-1,2.6-2.5C161.5,147.8,161.4,146.9,161.4,146z M166.6,146.1
				c0,0.9-0.1,1.8,0,2.7c0.1,1.4,1.2,2.4,2.6,2.4c1.3,0,2.5-1,2.5-2.4c0.1-1.8,0.1-3.6,0-5.5c-0.1-1.4-1.1-2.4-2.5-2.5
				c-1.4,0-2.5,1-2.6,2.5C166.5,144.3,166.6,145.2,166.6,146.1z"/>
			<path class="st22" d="M172.1,130.5c-31.6,0-63.3,0-94.9,0c-2.9-1.1-4.1-3.2-4.1-6.3c0.1-6.3,0-12.6,0-18.9c0-3.7,2.1-5.8,5.8-5.8
				c14.4,0,28.7,0,43.1,0c0,1.1,0,2.2,0.1,3.3c0,0.7,0,1.4,0,2.1c0.1,1.4,1.1,2.4,2.5,2.4s2.5-0.9,2.6-2.4c0.1-0.7,0-1.4,0-2.1
				c0-1.1,0-2.2,0.1-3.3c14.3,0,28.6,0,42.9,0c3.9,0,5.9,2,5.9,5.9c0,6.2-0.1,12.5,0,18.7C176.2,127.4,175.1,129.5,172.1,130.5z
				 M119.4,120.2c4.2,0,8.5,0,12.7,0c1.9,0,2.8-1,2.9-2.9c0-1.6,0-3.2,0-4.8c0-1.6-1-2.6-2.6-2.6c-8.5,0-17,0-25.5,0
				c-1.7,0-2.7,1-2.7,2.7c0,1.5,0,3,0,4.5c0,2.2,0.9,3.1,3.1,3.1C111.2,120.2,115.3,120.2,119.4,120.2z M88.6,107.3
				c-4.3,0-7.7,3.5-7.7,7.8c0,4.2,3.4,7.7,7.7,7.7c4.3,0,7.8-3.4,7.8-7.7C96.3,110.7,92.9,107.3,88.6,107.3z M147.8,115.2
				c0-0.9,0-1.8,0-2.7c-0.1-1.5-1.1-2.5-2.5-2.5s-2.5,1-2.6,2.5c-0.1,1.8-0.1,3.5,0,5.3c0,1.5,1.1,2.5,2.5,2.5s2.5-1,2.6-2.5
				C147.9,116.9,147.8,116,147.8,115.2z M158.1,115.2c0-0.9,0-1.8,0-2.7c-0.1-1.5-1.1-2.5-2.5-2.5s-2.5,1-2.6,2.5
				c-0.1,1.8-0.1,3.5,0,5.3c0,1.5,1.1,2.5,2.5,2.5s2.5-1,2.6-2.5C158.2,116.9,158.1,116,158.1,115.2z M168.4,115.1
				c0-1,0.1-1.9,0-2.9c-0.1-1.4-1.2-2.3-2.6-2.3c-1.4,0-2.5,1-2.5,2.4c-0.1,1.9-0.1,3.7,0,5.6c0.1,1.4,1.2,2.3,2.6,2.3
				c1.4,0,2.4-1,2.5-2.4C168.5,117,168.4,116.1,168.4,115.1z"/>
			<g class="st12">
				<path class="st23" d="M84.7,45.4c0,1,0,1.9,0,2.9c-0.2,3.4-3,6.1-6.4,6.1s-6.3-2.7-6.4-6.1c-0.1-1.9-0.1-3.9,0-5.8
					c0.1-3.4,3-6.1,6.4-6.1s6.3,2.7,6.4,6.1C84.8,43.4,84.7,44.4,84.7,45.4z M74.4,45.3c0,1-0.1,1.9,0,2.9c0.2,2.1,1.8,3.6,3.8,3.7
					c2,0,3.7-1.5,3.9-3.5c0.1-1.9,0.1-3.9,0-5.8C82,40.5,80.3,39,78.3,39s-3.6,1.6-3.8,3.6C74.4,43.5,74.4,44.4,74.4,45.3z"/>
				<path class="st24" d="M162,46.7c-0.1,1,0,1.9-0.3,2.9c-0.9,3.2-3.9,5.2-7.1,4.8c-3.1-0.4-5.5-3.1-5.6-6.3c0-1.6,0-3.2,0-4.8
					c0-5,3.9-7.9,8.7-6.5c0.2,0.1,0.4,0.1,0.6,0.2c2.7,1.7,3.8,4.1,3.6,7.3C161.9,45,162,45.9,162,46.7z M151.7,45.4L151.7,45.4
					c0,0.9-0.1,1.8,0,2.7c0.1,2.1,1.8,3.7,3.9,3.7c2,0,3.7-1.6,3.8-3.8c0.1-1.8,0.1-3.6,0-5.5c-0.1-2.1-1.9-3.7-3.9-3.7
					s-3.6,1.6-3.7,3.7C151.6,43.5,151.7,44.5,151.7,45.4z"/>
				<path class="st24" d="M164.6,71.1c0-0.9,0-1.7,0-2.6c0.1-3.6,2.9-6.3,6.4-6.3c3.6,0,6.4,2.8,6.5,6.4c0,1.8,0,3.5,0,5.3
					c-0.1,3.5-2.9,6.3-6.4,6.4c-3.6,0-6.4-2.8-6.5-6.4C164.5,72.9,164.6,72,164.6,71.1z M174.8,71.3
					C174.8,71.3,174.9,71.3,174.8,71.3c0-1,0.1-1.9,0-2.9c-0.1-2.1-1.9-3.7-3.9-3.7s-3.7,1.6-3.8,3.7c-0.1,1.9-0.1,3.8,0,5.6
					c0.1,2,1.9,3.6,3.8,3.6c2,0,3.7-1.6,3.8-3.6C174.9,73.1,174.8,72.2,174.8,71.3z"/>
				<path class="st23" d="M87.6,66.4c2.1-3.6,4.8-4.9,8-3.9c2.6,0.8,4.4,3,4.5,5.7c0.1,2.1,0.2,4.2,0,6.3c-0.3,3.2-2.4,5-5.4,5.9
					c-5.2,0.2-7.9-3.6-7.5-7.8C87.5,70.4,87.1,68.4,87.6,66.4z M92.5,77.3c2.5,0.9,4.9-0.6,5.1-3.2c0.1-1.9,0.1-3.8,0-5.6
					c-0.1-2.1-1.8-3.6-3.8-3.6c-2.1,0-3.7,1.6-3.8,3.8c-0.1,1.4,0,2.9,0,4.3C89.8,75.4,90.5,76.5,92.5,77.3z"/>
				<path class="st24" d="M90.6,37.7c0.8-0.1,1.5-0.6,2.2-1c1.5-0.7,2.3-0.2,2.3,1.5c0,4,0.1,8.1,0,12.1c0,1.4,0.4,1.8,1.7,1.6
					c0.7-0.1,1.5,0,2.2,0c0.7,0.1,1.2,0.5,1.2,1.3c0,0.7-0.5,1.3-1.2,1.3c-3.5,0-7,0-10.5,0c-0.7,0-1.2-0.5-1.2-1.3
					c0-0.7,0.5-1.2,1.2-1.2c0.2,0,0.4,0,0.6,0c3.2-0.1,3.2-0.1,3.2-3.4c0-2.8,0-5.6,0-8.5c-1.5,0.3-2.5,1.3-3.9,1.6
					c-0.7-0.2-1.3-0.5-1.3-1.4c0-0.7,0.6-1,1.2-1.4C89.2,38.5,89.9,38,90.6,37.7z"/>
				<path class="st23" d="M169.7,39.8c-1.2,0.6-2.1,1-3.1,1.5c-0.8,0.4-1.5,0.3-1.9-0.5s0-1.4,0.8-1.8c1.5-0.8,3-1.6,4.6-2.3
					c1.4-0.6,2.2-0.1,2.2,1.4c0,4.1,0.1,8.3,0,12.4c0,1.2,0.3,1.5,1.4,1.4c0.7-0.1,1.5,0,2.2,0c0.9,0,1.5,0.4,1.5,1.3
					c0,0.8-0.6,1.2-1.4,1.2c-3.3,0-6.6,0-10,0c-0.9,0-1.5-0.4-1.5-1.3c0-0.8,0.6-1.2,1.4-1.2c0.2,0,0.3,0,0.5,0
					c3.2-0.1,3.2-0.1,3.2-3.4C169.7,45.7,169.7,42.9,169.7,39.8z"/>
				<path class="st24" d="M77,65.6c-1.1,0.5-2,1-2.9,1.4c-0.8,0.4-1.6,0.5-2.1-0.4c-0.5-1,0.2-1.5,1-1.9c1.4-0.7,2.9-1.5,4.3-2.2
					c1.5-0.7,2.3-0.2,2.3,1.4c0,4,0.1,8,0,11.9c0,1.6,0.5,2,1.9,1.8c0.6-0.1,1.3,0,1.9,0c0.8,0,1.3,0.5,1.3,1.3
					c0,0.7-0.5,1.2-1.2,1.2c-3.4,0-6.9,0-10.3,0c-0.8,0-1.3-0.5-1.3-1.3c0-0.7,0.5-1.2,1.3-1.2c1,0,1.9,0,2.9,0c0.5,0,0.9,0,0.9-0.7
					C77,73.2,77,69.5,77,65.6z"/>
				<path class="st23" d="M154.5,80.3c-1.2,0-2.5,0-3.7,0c-0.9,0-1.7-0.3-1.7-1.3s0.8-1.3,1.7-1.3c1.1,0,2.6,0.5,3.2-0.3
					c0.6-0.7,0.2-2.2,0.2-3.3c0-2.7,0-5.5,0-8.3c-1.2,0.2-2,0.8-3,1.3c-0.9,0.4-1.6,0.4-2-0.5s0.1-1.4,0.9-1.8
					c1.5-0.7,3-1.5,4.5-2.2s2.2-0.2,2.3,1.5c0,4.3,0,8.6,0.1,12.9c-0.2,0.7,0.2,0.8,0.8,0.8c0.9,0,1.8,0,2.7,0s1.6,0.4,1.6,1.4
					c0,0.9-0.7,1.2-1.5,1.2C158.4,80.2,156.5,80.3,154.5,80.3z"/>
			</g>
			<path class="st20" d="M119.6,140.9c4,0,7.9,0,11.9,0c2.6,0,3.4,0.8,3.4,3.5c0,1.4,0,2.8,0,4.2c-0.1,1.6-1,2.6-2.6,2.6
				c-8.5,0-17,0-25.6,0c-1.7,0-2.6-1-2.7-2.8c0-1.6,0-3.1,0-4.7c0-1.9,1-2.9,2.9-2.9C111.2,140.9,115.4,140.9,119.6,140.9z"/>
			<path class="st25" d="M92.5,153.8c-4.2,0-7.7-3.6-7.6-7.9c0.1-4.2,3.6-7.6,7.8-7.6c4.2,0,7.7,3.6,7.6,7.9
				C100.2,150.4,96.7,153.8,92.5,153.8z M92.6,148.6c1.4,0,2.5-1.2,2.5-2.6c0-1.4-1.1-2.5-2.5-2.6c-1.5,0-2.6,1.2-2.6,2.7
				C90.1,147.5,91.2,148.6,92.6,148.6z"/>
			<path class="st25" d="M151.8,146c0,0.9,0.1,1.8,0,2.7c-0.1,1.5-1.2,2.5-2.6,2.5c-1.3,0-2.4-1-2.5-2.5c-0.1-1.8-0.1-3.6,0-5.5
				c0.1-1.4,1.2-2.4,2.5-2.4c1.4,0,2.4,1,2.5,2.4C151.9,144.2,151.8,145.1,151.8,146z"/>
			<path class="st25" d="M162.1,146c0,0.9,0.1,1.8,0,2.7c-0.1,1.5-1.2,2.5-2.6,2.5c-1.3,0-2.4-1-2.5-2.5c-0.1-1.8-0.1-3.6,0-5.5
				c0.1-1.4,1.2-2.4,2.5-2.4c1.4,0,2.4,1,2.6,2.4C162.2,144.2,162.1,145.1,162.1,146z"/>
			<path class="st25" d="M167.3,146.1c0-0.9-0.1-1.8,0-2.7c0.1-1.5,1.2-2.5,2.6-2.5c1.4,0,2.4,1,2.5,2.5c0.1,1.8,0.1,3.6,0,5.5
				c-0.1,1.4-1.2,2.4-2.5,2.4s-2.4-1-2.6-2.4C167.2,147.9,167.3,147,167.3,146.1z"/>
			<path class="st25" d="M119.4,120.2c-4.1,0-8.1,0-12.2,0c-2.2,0-3.1-0.9-3.1-3.1c0-1.5,0-3,0-4.5c0-1.7,1-2.7,2.7-2.7
				c8.5,0,17,0,25.5,0c1.6,0,2.6,1,2.6,2.6s0,3.2,0,4.8c0,1.9-1,2.9-2.9,2.9C127.8,120.2,123.6,120.2,119.4,120.2z"/>
			<path class="st25" d="M88.6,107.3c4.3,0,7.8,3.4,7.8,7.8c0,4.3-3.4,7.7-7.8,7.7c-4.2,0-7.7-3.4-7.7-7.7
				C80.8,110.8,84.2,107.3,88.6,107.3z M91.1,115.1c0-1.4-1.1-2.6-2.5-2.6S86,113.6,86,115c-0.1,1.5,1.1,2.7,2.6,2.7
				C90,117.6,91.1,116.5,91.1,115.1z"/>
			<path class="st26" d="M147.8,115.2c0,0.9,0,1.7,0,2.6c-0.1,1.5-1.2,2.5-2.6,2.5c-1.4,0-2.5-1-2.5-2.5c-0.1-1.8-0.1-3.5,0-5.3
				c0.1-1.5,1.2-2.5,2.6-2.5c1.4,0,2.5,1,2.5,2.5C147.9,113.4,147.8,114.3,147.8,115.2z"/>
			<path class="st26" d="M158.1,115.2c0,0.9,0,1.7,0,2.6c-0.1,1.5-1.2,2.5-2.6,2.5c-1.4,0-2.5-1-2.5-2.5c-0.1-1.8-0.1-3.5,0-5.3
				c0.1-1.5,1.2-2.5,2.6-2.5c1.4,0,2.5,1,2.5,2.5C158.2,113.4,158.1,114.3,158.1,115.2z"/>
			<path class="st26" d="M168.4,115.1c0,0.9,0.1,1.8,0,2.7c-0.1,1.4-1.2,2.4-2.5,2.4c-1.4,0-2.5-0.9-2.6-2.3c-0.1-1.9-0.1-3.7,0-5.6
				c0.1-1.4,1.2-2.4,2.5-2.4c1.4,0,2.5,0.9,2.6,2.3C168.5,113.2,168.4,114.2,168.4,115.1z"/>
			<path class="st26" d="M122.1,102.9c1.6,2.5,3.5,2.5,5.1,0c0,0.7,0.1,1.4,0,2.1c-0.1,1.5-1.2,2.5-2.6,2.4c-1.4,0-2.4-1-2.5-2.4
				C122,104.2,122.1,103.5,122.1,102.9z"/>
			<path class="st19" d="M74.4,45.3c0-0.9-0.1-1.8,0-2.7c0.2-2.1,1.8-3.6,3.8-3.6s3.7,1.5,3.8,3.6c0.1,1.9,0.1,3.9,0,5.8
				c-0.1,2-1.9,3.6-3.9,3.5c-2,0-3.6-1.6-3.8-3.7C74.4,47.2,74.4,46.2,74.4,45.3z"/>
			<path class="st19" d="M174.8,71.3c0,0.9,0.1,1.8,0,2.7c-0.2,2-1.9,3.6-3.8,3.6c-2,0-3.7-1.6-3.8-3.6c-0.1-1.9-0.1-3.8,0-5.6
				c0.1-2.1,1.8-3.6,3.8-3.7c2,0,3.8,1.6,3.9,3.7C174.9,69.4,174.9,70.4,174.8,71.3C174.9,71.3,174.8,71.3,174.8,71.3z"/>
			<g>
				<path class="st27" d="M130.5,122.8c0,1.1,0,2.2-0.1,3.3c-1.6,2.5-3.5,2.5-5.1,0c0-1.1,0-2.2-0.1-3.3c0-1.3,0-2.7,0.1-4
					c0.1-1.1-0.4-1.3-1.4-1.4c-10.4-1.1-18.9-5.8-25.8-13.6c-0.1-0.1-0.1-0.2-0.2-0.3c-1.5-1.7-3.3-4.2-4.8-7.4
					c-1.2-2.5-1.9-4.7-2.3-6.6c-0.8-2.5-1.2-4.6-1.4-6.2c-0.6-4.9-0.2-9.9,1.2-14.8c0.3-1.3,0.8-2.5,1.2-3.8c0.7-1.3,1.5-2.7,2.2-4
					c7.4-12.8,18.4-20.2,33.3-20.5c15.3-0.3,26.8,6.7,34.6,19.8c-0.2-0.1-0.4-0.1-0.6-0.2c-4.8-1.4-8.7,1.5-8.7,6.5
					c0,1.6,0,3.2,0,4.8c0.1,3.2,2.4,5.9,5.6,6.3c3.2,0.4,6.2-1.6,7.1-4.8c0.3-1,0.1-1.9,0.3-2.9c1.2,3.3,1.3,6.8,1.2,10.3
					c-0.3,7.2-2.2,13.9-6.4,19.9c0.5-3.4,1.8-13.7-0.7-14.6c-0.3-0.1-0.9-0.2-1.7,0.2c-1.5,0.7-3,1.5-4.5,2.2
					c-0.7,0.4-1.3,0.9-0.9,1.8c0.4,0.9,1.2,0.9,2,0.5c0.9-0.4,1.8-1.1,3-1.3c0.1,4.8,0.2,9.7,0.3,14.5c-6.8,7.9-15.3,12.7-25.8,13.8
					c-1.1,0.1-1.7,0.4-1.5,1.6C130.5,120.2,130.5,121.5,130.5,122.8z M107.3,85.1c0,2.6,0.1,5.3-0.1,7.9s1,4.3,3.1,5.5
					c1,0.6,2.1,1.1,3.2,1.5c7.7,2.6,15.5,2.8,23.5,1.4c3.3-0.6,6.5-1.4,9.3-3.4c1.5-1.1,2.3-2.4,2.3-4.3c-0.1-2.8,0-5.7,0-8.5
					c0-3.5,0-6.9,0-10.4c0-3.4,0-6.9,0-10.3c0.3-2-0.7-3.4-2.2-4.5c-1.4-1-3-1.7-4.6-2.2c-6.9-2.2-13.9-2.4-20.9-1.5
					c-3.8,0.5-7.6,1.4-10.9,3.5c-1.7,1.1-2.9,2.5-2.6,4.8c0,3.4,0,6.9,0,10.3C107.3,78.1,107.3,81.6,107.3,85.1z"/>
				<path class="st20" d="M107.2,64.4c0-0.5,0-1.2,0.3-2.1c0.2-0.4,0.7-1.6,2.4-2.7c3.3-2.1,7.1-3,10.9-3.5
					c7.1-0.9,14.1-0.7,20.9,1.5c0.3,0.1,2.5,0.6,4.6,2.2c1.5,1.2,1.9,2.1,2.1,2.8c0.2,0.8,0.1,1.5,0,1.9c-0.2,0.4-0.4,0.9-0.8,1.6
					c-1.5,2.2-3.6,3.2-6,4c-2.2,0.8-5.4,1.6-10.4,1.9c-4.9,0.4-8.5,0.6-12.7-0.8c-1.3-0.4-1.3-0.6-3.7-1.5c-3.4-1.2-4.9-1.5-6.2-2.9
					C107.8,65.9,107.4,64.9,107.2,64.4z"/>
				<path class="st20" d="M148.4,74.7c0,3.5,0,6.9,0,10.4c-1.1,2.1-3,3.3-5.1,4.2c-3.4,1.4-6.9,2.1-10.6,2.4
					c-6.7,0.6-13.3,0.2-19.6-2.1c-2.4-0.9-4.6-2-5.9-4.5c0-3.5,0-6.9,0-10.4c1.4,2.4,3.6,3.7,6.2,4.5c8.8,2.9,17.7,3,26.7,0.7
					C143.4,79.1,146.6,77.9,148.4,74.7z"/>
				<path class="st28" d="M148.4,74.7c-1.9,3.2-5,4.4-8.3,5.2c-8.9,2.3-17.9,2.2-26.7-0.7c-2.5-0.8-4.8-2.1-6.2-4.5
					c0-3.4,0-6.9,0-10.3c1.7,3.1,4.6,4.2,7.7,5.1c8.9,2.4,17.7,2.4,26.6-0.2c2.8-0.8,5.4-2,6.9-4.8
					C148.4,67.8,148.4,71.3,148.4,74.7z"/>
				<path class="st28" d="M107.2,85.1c1.2,1.3,3.1,3.2,6,4.5c0.8,0.4,1.9,0.8,4.2,1.3c6.9,1.5,12.7,1.1,15.4,0.8
					c0.8-0.1,3.5-0.3,6-0.9c1.4-0.4,3-0.9,3-0.9c0.8-0.3,1.4-0.5,1.6-0.6c0.8-0.3,2.6-1.2,5-4.2c0,3.7,0,6.6,0.1,8.5
					c0,0.4,0,1.1-0.3,2c-0.4,0.9-1.1,1.7-2,2.3c-2.8,2-6,2.9-9.3,3.4c-7.9,1.4-15.8,1.2-23.5-1.4c-1.1-0.4-2.2-0.9-3.2-1.5
					c-1.2-0.7-2.1-1.6-2.6-2.7c-0.5-1.1-0.5-2.1-0.5-2.8C107.2,90.8,107.2,88.3,107.2,85.1z"/>
				<path class="st27" d="M154.9,68.6c0-0.9-0.1-1.8,0-2.7c0.1-2.1,1.8-3.6,3.7-3.7c2-0.1,3.8,1.5,3.9,3.7c0.1,1.8,0.1,3.6,0,5.5
					c-0.1,2.1-1.8,3.8-3.8,3.8s-3.7-1.6-3.9-3.7C154.8,70.4,154.9,69.5,154.9,68.6L154.9,68.6z"/>
				<path class="st27" d="M93.1,96.1c0-1.4-0.1-2.9,0-4.3c0.1-2.2,1.8-3.8,3.8-3.8s3.7,1.6,3.8,3.6c0.1,1.9,0.1,3.8,0,5.6
					c-0.2,2.6-2.6,4.1-5.1,3.2C94.8,99,94,97.6,93.1,96.1z"/>
			</g>
			<path class="st19" d="M89.9,72.9c0.9,1.5,1.7,3,2.6,4.4C90.5,76.5,89.8,75.4,89.9,72.9z"/>
			<path class="st18" d="M91.6,148.6c-1.4,0-2.6-1.1-2.6-2.5c-0.1-1.5,1.1-2.7,2.6-2.7c1.4,0,2.5,1.2,2.5,2.6
				C94.2,147.4,93,148.6,91.6,148.6z"/>
			<path class="st27" d="M91.1,115.1c0,1.4-1.2,2.5-2.6,2.5c-1.5,0-2.6-1.2-2.6-2.7c0.1-1.4,1.2-2.5,2.6-2.5
				C90,112.5,91.2,113.7,91.1,115.1z"/>
		</g>
	</g>
	<circle class="st18" cx="128" cy="118.4" r="4.8"/>
	<circle class="st18" cx="128" cy="126.8" r="1.8"/>
	<g>
		<g>
			<path class="st20" d="M91.4,50.4h-1.5v1.5h-7.5v-1.5h-1.5v-1.5h-1.5v-9h1.5v-1.5h1.5v-1.5h6v1.5h1.5v1.5h1.5V50.4z M82.4,47.4
				v-7.5h-1.5v7.5H82.4z M86.9,39.9v-1.5h-4.5v1.5H86.9z M86.9,48.9v-1.5h-4.5v1.5H86.9z M85.4,44.4v-1.5h-1.5v1.5H85.4z M88.4,47.4
				v-7.5h-1.5v7.5H88.4z"/>
			<path class="st29" d="M104.9,51.9h-4.5v-1.5h-1.5v-7.5h-1.5v-3h1.5v-1.5h1.5v-1.5h3v1.5h1.5V51.9z M101.9,48.9V38.4h-1.5v1.5
				h-1.5v1.5h1.5v7.5H101.9z"/>
		</g>
		<g>
			<path class="st29" d="M162.3,50.1h-1.5v1.5h-7.5v-1.5h-1.5v-1.5h-1.5v-9h1.5v-1.5h1.5v-1.5h6v1.5h1.5v1.5h1.5V50.1z M153.3,47.1
				v-7.5h-1.5v7.5H153.3z M157.8,39.6v-1.5h-4.5v1.5H157.8z M157.8,48.6v-1.5h-4.5v1.5H157.8z M156.3,44.1v-1.5h-1.5v1.5H156.3z
				 M159.3,47.1v-7.5h-1.5v7.5H159.3z"/>
			<path class="st20" d="M175.8,51.6h-4.5v-1.5h-1.5v-7.5h-1.5v-3h1.5v-1.5h1.5v-1.5h3v1.5h1.5V51.6z M172.8,48.6V38.1h-1.5v1.5
				h-1.5v1.5h1.5v7.5H172.8z"/>
		</g>
		<g>
			<path class="st29" d="M92.2,68.3h-1.5v1.5h-7.5v-1.5h-1.5v-1.5h-1.5v-9h1.5v-1.5h1.5v-1.5h6v1.5h1.5v1.5h1.5V68.3z M83.2,65.3
				v-7.5h-1.5v7.5H83.2z M87.7,57.8v-1.5h-4.5v1.5H87.7z M87.7,66.8v-1.5h-4.5v1.5H87.7z M86.2,62.3v-1.5h-1.5v1.5H86.2z M89.2,65.3
				v-7.5h-1.5v7.5H89.2z"/>
			<path class="st20" d="M105.7,69.8h-4.5v-1.5h-1.5v-7.5h-1.5v-3h1.5v-1.5h1.5v-1.5h3v1.5h1.5V69.8z M102.7,66.8V56.3h-1.5v1.5
				h-1.5v1.5h1.5v7.5H102.7z"/>
		</g>
		<g>
			<path class="st20" d="M163.1,68h-1.5v1.5h-7.5V68h-1.5v-1.5h-1.5v-9h1.5V56h1.5v-1.5h6V56h1.5v1.5h1.5V68z M154.1,65v-7.5h-1.5
				V65H154.1z M158.6,57.5V56h-4.5v1.5H158.6z M158.6,66.5V65h-4.5v1.5H158.6z M157.1,62v-1.5h-1.5V62H157.1z M160.1,65v-7.5h-1.5
				V65H160.1z"/>
			<path class="st29" d="M176.6,69.5h-4.5V68h-1.5v-7.5h-1.5v-3h1.5V56h1.5v-1.5h3V56h1.5V69.5z M173.6,66.5V56h-1.5v1.5h-1.5V59
				h1.5v7.5H173.6z"/>
		</g>
	</g>
</g>
<g id="db1">
</g>
<g id="Capa_3">
</g>
</svg>
