<?xml version="1.0" encoding="utf-8"?>
<!-- Generator: Adobe Illustrator 24.2.0, SVG Export Plug-In . SVG Version: 6.00 Build 0)  -->
<svg version="1.1" xmlns="http://www.w3.org/2000/svg" xmlns:xlink="http://www.w3.org/1999/xlink" x="0px" y="0px"
	 viewBox="0 0 256 256" style="enable-background:new 0 0 256 256;" xml:space="preserve">
<style type="text/css">
	.st0{display:none;}
	.st1{display:inline;}
	.st2{fill:none;stroke:#000000;stroke-miterlimit:10;}
	.st3{display:inline;fill:none;stroke:#000000;stroke-miterlimit:10;}
	.st4{display:inline;fill:#DEDC00;}
	.st5{display:inline;fill:#F39200;}
	.st6{display:none;fill:#1A273A;}
	.st7{fill:#3A57A4;}
	.st8{fill:#EBD130;}
	.st9{fill:#EF7C25;}
	.st10{fill:#EBD131;}
	.st11{fill:#050606;}
	.st12{fill:#333C90;}
	.st13{display:none;fill:#333C90;}
	.st14{display:none;fill:#FFFFFF;}
	.st15{display:none;fill:#00A3E6;}
	.st16{display:none;fill:#EF7C25;}
	.st17{display:inline;fill:#333C90;}
	.st18{display:inline;fill:#EF7C25;}
	.st19{display:inline;fill:#EBD131;}
	.st20{display:inline;fill:#050606;}
	.st21{fill:#FFFFFF;}
	.st22{fill:#00A3E6;}
</style>
<g id="Capa_1" class="st0">
	<g class="st1">
		<g>
			<path class="st2" d="M77.6,61.5h20.8v92.9c0,8.3-2,15.3-6.1,21.1c-4,5.8-9.7,10.2-17.1,13.2c-7.3,3-16,4.5-26,4.5
				c-9.4,0-17.8-1.3-25.1-3.9c-7.3-2.6-13.1-6.3-17.3-11.1c-4.2-4.8-6.3-10.6-6.3-17.2h20.5c0,3.7,1.2,6.9,3.7,9.6
				c2.4,2.7,5.8,4.9,10,6.4c4.3,1.5,9.1,2.3,14.5,2.3c6,0,11.1-1,15.3-2.9s7.4-4.7,9.6-8.4c2.2-3.7,3.3-8.2,3.3-13.6V61.5z"/>
		</g>
	</g>
	<path class="st3" d="M111.8,191.5v-130H170c13.4,0,24.5,1.7,33.1,5.2c8.6,3.4,15,8.2,19.2,14.2c4.1,6,6.2,12.8,6.2,20.5
		c0,7.7-2.1,14.5-6.2,20.4c-4.1,5.9-10.5,10.6-19.1,13.9s-19.5,5-32.9,5c-12.6,0-25.1,0-37.7,0c0-4.7,0-9.5,0-14.2
		c12.3,0,24.7,0,37,0c9.2,0,16.6-1,22.2-3c5.6-2,9.7-4.9,12.3-8.7c2.5-3.7,3.8-8.2,3.8-13.4c0-5.2-1.3-9.8-3.9-13.6
		c-2.6-3.9-6.7-6.9-12.4-9c-5.7-2.1-13.1-3.2-22.4-3.2h-36.6v116H111.8z M196.3,137.9c13,17.9,25.9,35.7,38.9,53.6H211
		c-12.1-16.9-24.2-33.9-36.3-50.8C181.9,139.7,189.1,138.8,196.3,137.9z"/>
	
		<image style="display:inline;overflow:visible;" width="593" height="414" xlink:href="87836A43.jpg"  transform="matrix(0.5281 0 0 0.5281 -350.6136 22.3871)">
	</image>
	<rect x="111.8" y="191.7" class="st4" width="30.9" height="10"/>
	<rect x="132.7" y="140.7" class="st4" width="10" height="56"/>
	<rect x="132.7" y="140.5" class="st4" width="45.5" height="10"/>
	<path class="st4" d="M209,201.7c-13.2-18.4-26.5-36.8-39.7-55.1l8.1-5.8c14.6,20.3,29.3,40.7,43.9,61
		C217.3,201.7,213.1,201.7,209,201.7z"/>
	<rect x="209.3" y="191.7" class="st4" width="34.5" height="10"/>
	<path class="st4" d="M241.4,201c-6.5-9-12.9-18-19.4-27l8.1-5.8c8.1,11.2,16.1,22.4,24.2,33.6C250,201.5,245.7,201.3,241.4,201z"/>
	<path class="st4" d="M232.7,213.8"/>
	<path class="st5" d="M89.3,193.8c-10.7,6.9-21.5,7.9-26.7,8c-7,0-14,0-21,0c0-3.9,0.1-7.8,0.1-11.8c7.2-0.1,14.3-0.2,21.5-0.3
		c4.9,0.8,13.1,1.2,20.6-3.4c9.5-5.8,12.4-16.2,14.8-25.1c2.4-8.7,2.5-16.1,2.3-20.9c3.6,0,7.3,0.1,10.9,0.1c-0.1,7-0.1,14-0.2,21
		c-1,4.4-3.2,11.5-8.5,19C97.6,188.2,91.4,192.4,89.3,193.8z"/>
</g>
<g id="Capa_2">
	<path class="st6" d="M239,256H17c-9.4,0-17-7.6-17-17V17C0,7.6,7.6,0,17,0H239c9.4,0,17,7.6,17,17V239C256,248.4,248.4,256,239,256
		z"/>
	<path class="st7" d="M74.6,38.6c0,33.4,0,66.8,0,100.1c0,1.4,0,3.5,0,6c0,2.3,0.1,2.7,0,3.5c-0.3,3.2-1.9,5.8-2.9,7.1
		c-3.1,3.9-7.9,4.7-10.9,5.2c-7.4,1.2-13.1-1.6-14.8-2.5c-1.9-0.9-3.3-2-4.3-2.7c-2.4-1.7-4.7-3.5-7.1-5.2
		c-9.9,13.5-19.9,27-29.8,40.5c4.1-0.6,8.2-1.2,12.4-1.8c6.4-8.8,12.9-17.6,19.3-26.4c2.2,1.6,5.7,3.8,10.3,5.2
		c10.7,3.2,24.8,1.2,31.8-7.3c4-4.9,4.8-10.6,4.8-13c0-33.3,0-66.6,0-100c9.6,0,19.3,0,28.9,0c0,32.8,0,65.6,0,98.5
		c3.1-1.7,6.2-3.4,9.3-5.1c0-34,0-68,0-102C106,38.6,90.3,38.6,74.6,38.6z"/>
	<path class="st7" d="M130.7,38.6c0,2.9,0,5.8,0,8.7c20.3,0,40.5,0,60.8,0c4,1.2,10.5,3.8,16.4,9.3c14.8,13.7,20.9,40.8,8,57.2
		c-5.1,6.4-12.6,10.8-20.5,12.9c8.6,17.2,17.2,34.4,25.8,51.7c2.3-1.4,4.6-2.8,6.9-4.2c-6.9-14.5-13.7-29.1-20.6-43.6
		c7.3-2.1,13.8-9.2,17.6-15.5c11.8-19.4,7.1-47.9-10.3-63.7c-11.2-10.2-24.5-12.3-31.1-12.8C166,38.6,148.4,38.6,130.7,38.6z"/>
	<path class="st8" d="M187.9,68.1c-5.3-2.5-11.3-2.5-17.1-2.5h-21.1c0,2.9,0,5.9,0,8.8c2.9,0,5.9,0,8.8,0c8.2,0,16.4,0,24.6,0
		c0.1,0,0.3,0,0.5,0c4.2,0.2,9.2,6.2,8.8,12.3c-0.4,5.4-4.8,10.3-8.7,10.5c-0.1,0-0.3,0-0.4,0c-5.2,0-19.6,0-24.8,0
		c-0.7,0-8.1,0-8.8,0c0,2.9,0,5.7,0.1,8.6c2.2,0.1,5.2,0.2,8.8,0.2c6.6,0.1,6.1-0.2,14.5-0.3c7.2-0.1,11-0.1,15.8-2.2
		c0.5-0.2,1-0.5,1.4-0.7C204.5,95,202.2,74.8,187.9,68.1z"/>
	<path class="st9" d="M112.4,47.3c0,35.3,0,70.6,0,105.9c-0.7,4.7-2.3,12.3-7.1,20.5c-7.4,12.7-17.6,18.8-20.4,20.3
		c-8.9,5-17.3,6.2-20.7,6.6c-0.7,0.1-1.3,0.1-1.6,0.2c-15.7,1.3-28.6-3.6-32.7-5.3c-3.3-1.4-7.7-3.5-12.6-6.7
		c-4.1,0.6-8.2,1.2-12.4,1.8c6.1,5.8,12,9.4,16.1,11.5c0,0,18,9.2,41.4,7.7c0.1,0,0.1,0,0.1,0c0.1,0,0.3,0,0.5,0
		c12.1-0.9,21.2-5.2,24.1-6.7c15.7-7.9,23.8-20.9,25.2-23.3c8.1-13.1,8.9-24.8,9.4-34.4c0-0.2,0.1-1.1,0.1-2.1
		c0.4-11.1,0.2-59.7-0.1-104.6C118.6,41.5,115.5,44.4,112.4,47.3z"/>
	<path class="st10" d="M149.7,145.3c0,14,0,28,0,42c0,4.5,0,8.9,0,13.4c-12.4,0.1-24.9,0.2-37.3,0.3c0,2.9,0,5.8,0,8.7
		c15.4,0,30.8,0,46.2,0c0-18.6,0-37.1-0.1-55.7c2.7,0.8,6.8,2.2,11,5.1c8.7,5.9,12.4,14.1,17.3,25.2c2.6,6,5.9,14.6,8.4,25.4
		c18,0,35.9,0,53.9,0c-8.1-14.2-16.2-28.4-24.3-42.7c-1.2,3.8-2.3,7.5-3.5,11.3c3.9,7.5,7.9,15,11.8,22.5c-10.2,0-20.5,0-30.7,0
		c-0.8-3.2-1.6-5.7-2.2-7.6c-4.8-14.8-10.6-24.4-12.5-27.5c-0.7-1.1-1.1-1.7-1.6-2.4c-5.9-8.3-13.5-12.6-16.9-14.3
		c-4.1-2.1-7.9-3.2-10.5-3.8C155.6,145.3,152.7,145.3,149.7,145.3z"/>
	<path class="st11" d="M207.2,88.5"/>
	<path class="st12" d="M189.7,113.5"/>
	<path class="st13" d="M107.8,105.1l0.4,40.2c7.6,0,15.2,0,22.8,0c6,0,11.9,0,17.1-2.9c14.4-7.9,12.1-28.1-2.2-34.8
		c-5.3-2.5-11.3-2.5-17.1-2.5H107.8z"/>
	<path class="st14" d="M117,112.8l0.3,24.6c4.7,0,9.3,0,14,0c3.6,0,7.3,0,10.5-1.8c8.8-4.8,7.4-17.2-1.3-21.3
		c-3.2-1.5-6.9-1.5-10.5-1.5H117z"/>
	
		<rect x="20.2" y="191.5" transform="matrix(0.8334 0.5526 -0.5526 0.8334 112.3713 19.0071)" class="st15" width="8.8" height="8.8"/>
	
		<rect x="22.5" y="170.4" transform="matrix(0.8051 0.5932 -0.5932 0.8051 108.9411 18.0899)" class="st15" width="8.8" height="8.8"/>
	
		<rect x="36.2" y="151.9" transform="matrix(0.8051 0.5932 -0.5932 0.8051 100.6257 6.399)" class="st15" width="8.8" height="8.8"/>
	
		<rect x="11.6" y="185.2" transform="matrix(0.8051 0.5932 -0.5932 0.8051 115.6137 27.4709)" class="st15" width="8.8" height="8.8"/>
	<rect x="154.7" y="145.3" class="st15" width="8.8" height="8.8"/>
	<rect x="154.7" y="65.6" class="st15" width="8.8" height="8.8"/>
	<rect x="154.6" y="97.2" class="st15" width="8.8" height="8.8"/>
	<path class="st16" d="M12.4,164.6c0,2.6,0,5.3,0,7.9c-0.7,4.7-2.3,12.3-7.1,20.5c-7.4,12.7-17.6,18.8-20.4,20.3
		c-8.9,5-17.3,6.2-20.7,6.6c-0.8,0.1-1.6,0.2-1.6,0.2c-1.9,0.1-3.6,0.1-4.9,0c-3.7,3-7.5,5.9-11.2,8.9c5.3,0,10.6,0,16,0
		c0.1,0,0.4,0,0.6,0c12.1-0.9,21.2-5.2,24.1-6.7c15.7-7.9,23.8-20.9,25.2-23.3c9-14.6,9.5-28.7,9.4-34.4c0-2.8,0-5.7,0-8.5
		C18.6,158.9,15.5,161.7,12.4,164.6z"/>
	<g id="Capa_4">
	</g>
</g>
<g id="Capa_3" class="st0">
	<path class="st17" d="M-69.8,102.7c0,33.4,0,66.8,0,100.1c0,1.4,0,3.5,0,6c0,2.3,0.1,2.7,0,3.5c-0.3,3.2-1.9,5.8-2.9,7.1
		c-3.1,3.9-7.9,4.7-10.9,5.2c-7.4,1.2-13.1-1.6-14.8-2.5c-1.9-0.9-3.3-2-4.3-2.7c-2.4-1.7-4.7-3.5-7.1-5.2
		c-9.9,13.5-19.9,27-29.8,40.5c1.8,1.4,4.4,3.3,7.6,5.6c4,2.9,7.5,5.3,8.4,5.9c3.3,2.2,10.3,5.8,24.6,7.7c3.1,0,6.2,0,9.3,0
		c0.9-3,1.9-5.9,2.8-8.9c-1.5,0-3.9,0-6.7,0c-5.5,0-5.3,0-5.6,0c-9.3-0.3-17.1-4.5-19.6-6.2c-0.4-0.3-1-0.7-2.2-1.4
		c-2.4-1.5-3.5-2.1-5.2-3.4c-0.5-0.4-1-0.8-1.2-1c6.4-8.8,12.9-17.6,19.3-26.4c2.2,1.6,5.7,3.8,10.3,5.2c10.7,3.2,24.8,1.2,31.8-7.3
		c4-4.9,4.8-10.6,4.8-13c0-33.3,0-66.6,0-100c9.6,0,19.3,0,28.9,0c0,32.8,0,65.6,0,98.5c3.1-1.7,6.2-3.4,9.3-5.1c0-34,0-68,0-102
		C-38.4,102.7-54.1,102.7-69.8,102.7z"/>
	<path class="st17" d="M-13.7,102.7c0,2.9,0,5.8,0,8.7c20.3,0,40.5,0,60.8,0c4,1.2,10.5,3.8,16.4,9.3c14.8,13.7,20.9,40.8,8,57.2
		c-5.1,6.4-12.6,10.8-20.5,12.9c8.6,17.2,17.2,34.4,25.8,51.7c2.3-1.4,4.6-2.8,6.9-4.2c-6.9-14.5-13.7-29.1-20.6-43.6
		c7.3-2.1,13.8-9.2,17.6-15.5c11.8-19.4,7.1-47.9-10.3-63.7c-11.2-10.2-24.5-12.3-31.1-12.8C21.6,102.7,4,102.7-13.7,102.7z"/>
	<path class="st17" d="M43.5,132.1c-5.3-2.5-11.3-2.5-17.1-2.5H5.3c0,2.9,0,5.9,0,8.8c2.9,0,5.9,0,8.8,0c8.2,0,16.4,0,24.6,0
		c0.1,0,0.3,0,0.5,0c4.2,0.2,9.2,6.2,8.8,12.3c-0.4,5.4-4.8,10.3-8.7,10.5c-0.1,0-0.3,0-0.4,0c-5.2,0-19.6,0-24.8,0
		c-0.7,0-8.1,0-8.8,0c0,2.9,0,5.7,0.1,8.6c2.2,0.1,5.2,0.2,8.8,0.2c6.6,0.1,6.1-0.2,14.5-0.3c7.2-0.1,11-0.1,15.8-2.2
		c0.5-0.2,1-0.5,1.4-0.7C60.1,159.1,57.7,138.9,43.5,132.1z"/>
	<path class="st18" d="M-32,209.3c0,2.6,0,5.3,0,7.9c-0.7,4.7-2.3,12.3-7.1,20.5c-7.4,12.7-17.6,18.8-20.4,20.3
		c-8.9,5-17.3,6.2-20.7,6.6c-0.8,0.1-1.6,0.2-1.6,0.2c-1.9,0.1-3.6,0.1-4.9,0c-3.7,3-7.5,5.9-11.2,8.9c5.3,0,10.6,0,16,0
		c0.1,0,0.4,0,0.6,0c12.1-0.9,21.2-5.2,24.1-6.7c15.7-7.9,23.8-20.9,25.2-23.3c9-14.6,9.5-28.7,9.4-34.4c0-2.8,0-5.7,0-8.5
		C-25.8,203.6-28.9,206.5-32,209.3z"/>
	<path class="st19" d="M5.3,209.3c0,14,0,28,0,42c0,4.5,0,8.9,0,13.4c-12.4,0.1-24.9,0.2-37.3,0.3c0,2.9,0,5.8,0,8.7
		c15.4,0,30.8,0,46.2,0c0-18.6,0-37.1-0.1-55.7c2.7,0.8,6.8,2.2,11,5.1c8.7,5.9,12.4,14.1,17.3,25.2c2.6,6,5.9,14.6,8.4,25.4
		c18,0,35.9,0,53.9,0c-8.1-14.2-16.2-28.4-24.3-42.7c-1.2,3.8-2.3,7.5-3.5,11.3c3.9,7.5,7.9,15,11.8,22.5c-10.2,0-20.5,0-30.7,0
		c-0.8-3.2-1.6-5.7-2.2-7.6c-4.8-14.8-10.6-24.4-12.5-27.5c-0.7-1.1-1.1-1.7-1.6-2.4c-5.9-8.3-13.5-12.6-16.9-14.3
		c-4.1-2.1-7.9-3.2-10.5-3.8C11.2,209.3,8.2,209.3,5.3,209.3z"/>
	<path class="st20" d="M62.8,152.6"/>
	<path class="st17" d="M45.3,177.5"/>
	<path class="st12" d="M-36.6,169.1l0.4,40.2c7.6,0,15.2,0,22.8,0c6,0,11.9,0,17.1-2.9c14.4-7.9,12.1-28.1-2.2-34.8
		c-5.3-2.5-11.3-2.5-17.1-2.5H-36.6z"/>
	<path class="st21" d="M-27.4,176.9l0.3,24.6c4.7,0,9.3,0,14,0c3.6,0,7.3,0,10.5-1.8c8.8-4.8,7.4-17.2-1.3-21.3
		c-3.2-1.5-6.9-1.5-10.5-1.5H-27.4z"/>
	
		<rect x="-124.2" y="255.5" transform="matrix(0.8334 0.5526 -0.5526 0.8334 123.7071 109.479)" class="st22" width="8.8" height="8.8"/>
	
		<rect x="-121.9" y="234.4" transform="matrix(0.8051 0.5932 -0.5932 0.8051 118.7776 116.2388)" class="st22" width="8.8" height="8.8"/>
	
		<rect x="-108.3" y="215.9" transform="matrix(0.8051 0.5932 -0.5932 0.8051 110.4622 104.5479)" class="st22" width="8.8" height="8.8"/>
	
		<rect x="-132.8" y="249.3" transform="matrix(0.8051 0.5932 -0.5932 0.8051 125.4502 125.6198)" class="st22" width="8.8" height="8.8"/>
	<rect x="10.3" y="209.3" class="st22" width="8.8" height="8.8"/>
	<rect x="10.3" y="129.6" class="st22" width="8.8" height="8.8"/>
	<rect x="10.2" y="161.3" class="st22" width="8.8" height="8.8"/>
	<path class="st9" d="M-132,228.6c0,2.6,0,5.3,0,7.9c-0.7,4.7-2.3,12.3-7.1,20.5c-7.4,12.7-17.6,18.8-20.4,20.3
		c-8.9,5-17.3,6.2-20.7,6.6c-0.8,0.1-1.6,0.2-1.6,0.2c-1.9,0.1-3.6,0.1-4.9,0c-3.7,3-7.5,5.9-11.2,8.9c5.3,0,10.6,0,16,0
		c0.1,0,0.4,0,0.6,0c12.1-0.9,21.2-5.2,24.1-6.7c15.7-7.9,23.8-20.9,25.2-23.3c9-14.6,9.5-28.7,9.4-34.4c0-2.8,0-5.7,0-8.5
		C-125.8,222.9-128.9,225.8-132,228.6z"/>
</g>
</svg>
