<svg id="Capa_1" data-name="Capa 1" xmlns="http://www.w3.org/2000/svg" viewBox="0 0 223.6 211"><defs><style>.cls-1{fill:#0d778f;}.cls-2{fill:#009ec8;}.cls-3{fill:#d5d74f;}.cls-4{fill:#009dc8;}.cls-5{fill:#183457;}.cls-6{fill:#fff;}.cls-7{fill:#fab50a;}.cls-8{fill:#009fc8;}.cls-9{fill:#c81051;}.cls-10{fill:none;}.cls-11{isolation:isolate;font-size:8px;font-family:ArialMT, Arial;}.cls-12{fill:#f9b50d;}.cls-13{fill:#06527a;}.cls-14{fill:#009ec7;}.cls-15{fill:#c71252;}.cls-16{fill:#1190c9;}</style></defs><g id="Capa_1-2" data-name="Capa 1"><g id="Capa_1-3" data-name="Capa 1"><g id="Monitor"><rect class="cls-1" x="98.8" y="174.5" width="29" height="17.8"/><path class="cls-2" d="M231.8,190.2H21.2a6.487,6.487,0,0,1-6.5-6.5V52.7a6.487,6.487,0,0,1,6.5-6.5H231.7a6.487,6.487,0,0,1,6.5,6.5v131A6.3409,6.3409,0,0,1,231.8,190.2Z" transform="translate(-14.7 -15.7)"/><rect class="cls-3" y="38.3" width="223.6" height="128.4"/><path class="cls-4" d="M177,208H79.2a9.2824,9.2824,0,0,0-9.3,9.3h0c-.2,3.1-.3,6.3-.5,9.4H177c3.2-.1,6.4-.1,9.6-.2-.1-3-.2-6.1-.3-9.1h0A9.3683,9.3683,0,0,0,177,208Z" transform="translate(-14.7 -15.7)"/></g><g id="Ventana"><path class="cls-5" d="M217.7,41.7H33.6a4.908,4.908,0,0,1-4.9-4.9V20.6a4.908,4.908,0,0,1,4.9-4.9H217.7a4.908,4.908,0,0,1,4.9,4.9V36.8A4.908,4.908,0,0,1,217.7,41.7Z" transform="translate(-14.7 -15.7)"/><path class="cls-6" d="M214,170.3H37.3a8.6,8.6,0,0,1-8.6-8.6V33.4l193.9.3v128A8.6,8.6,0,0,1,214,170.3Z" transform="translate(-14.7 -15.7)"/><path class="cls-6" d="M157.8,30.2H39.9a3.585,3.585,0,0,1-3.6-3.6V23.3a3.585,3.585,0,0,1,3.6-3.6H157.8a3.585,3.585,0,0,1,3.6,3.6v3.3A3.5841,3.5841,0,0,1,157.8,30.2Z" transform="translate(-14.7 -15.7)"/><circle class="cls-7" cx="180.4" cy="8.7" r="2.6"/><circle class="cls-8" cx="189.4" cy="8.7" r="2.6"/><circle class="cls-9" cx="198.9" cy="8.7" r="2.6"/></g><rect class="cls-10" x="25.9" y="6.4" width="79.2" height="8"/><text class="cls-11" transform="translate(25.9453 12.1276)">https://Create.to</text></g><circle class="cls-12" cx="113.3" cy="62.6" r="32.2"/><g id="DB"><rect class="cls-13" x="67.4" y="119.8" width="93.1" height="20.9"/><path class="cls-14" d="M175.4,130.5c3,1.1,4.2,3.3,4.1,6.5-.1,6.2,0,12.5,0,18.7,0,3.7-2,5.8-5.8,5.8H82.3c-3.8,0-5.8-2-5.8-5.8,0-6.2.1-12.5,0-18.7-.1-3.2,1.1-5.4,4.1-6.5Zm-52.5,10.4H110.2a2.59,2.59,0,0,0-2.9,2.9v4.7a2.5981,2.5981,0,0,0,2.7,2.8h25.6a2.4159,2.4159,0,0,0,2.6-2.6c.1-1.4,0-2.8,0-4.2,0-2.7-.8-3.5-3.4-3.5C130.9,140.9,126.9,140.9,122.9,140.9ZM91.8,153.8a7.7508,7.7508,0,1,0-7.6-7.9A7.856,7.856,0,0,0,91.8,153.8Zm59.3-7.8a24.3187,24.3187,0,0,0,0-2.7,2.519,2.519,0,0,0-2.5-2.4,2.3935,2.3935,0,0,0-2.5,2.4,50.4448,50.4448,0,0,0,0,5.5,2.6111,2.6111,0,0,0,2.5,2.5,2.5587,2.5587,0,0,0,2.6-2.5C151.2,147.8,151.1,146.9,151.1,146Zm10.3,0a24.3187,24.3187,0,0,0,0-2.7,2.5426,2.5426,0,0,0-2.6-2.4,2.3935,2.3935,0,0,0-2.5,2.4,50.4448,50.4448,0,0,0,0,5.5,2.6111,2.6111,0,0,0,2.5,2.5,2.5587,2.5587,0,0,0,2.6-2.5A26.1334,26.1334,0,0,0,161.4,146Zm5.2.1a24.3188,24.3188,0,0,0,0,2.7,2.5426,2.5426,0,0,0,2.6,2.4,2.4538,2.4538,0,0,0,2.5-2.4,50.4448,50.4448,0,0,0,0-5.5,2.6111,2.6111,0,0,0-2.5-2.5,2.5587,2.5587,0,0,0-2.6,2.5A26.1334,26.1334,0,0,0,166.6,146.1Z" transform="translate(-14.7 -15.7)"/><path class="cls-13" d="M119.6,140.9h11.9c2.6,0,3.4.8,3.4,3.5v4.2a2.4667,2.4667,0,0,1-2.6,2.6H106.7c-1.7,0-2.6-1-2.7-2.8v-4.7a2.59,2.59,0,0,1,2.9-2.9C111.2,140.9,115.4,140.9,119.6,140.9Z" transform="translate(-14.7 -15.7)"/><path class="cls-13" d="M107.2,64.4a4.9886,4.9886,0,0,1,2.7-4.8,26.3764,26.3764,0,0,1,10.9-3.5,47.5891,47.5891,0,0,1,20.9,1.5,13.4889,13.4889,0,0,1,4.6,2.2,5.3224,5.3224,0,0,1,2.1,2.8,3.97,3.97,0,0,1,0,1.9c-.2.4-.4.9-.8,1.6-1.5,2.2-3.6,3.2-6,4A36.3038,36.3038,0,0,1,131.2,72c-4.9.4-8.5.6-12.7-.8-1.3-.4-1.3-.6-3.7-1.5-3.4-1.2-4.9-1.5-6.2-2.9A7.94,7.94,0,0,1,107.2,64.4Z" transform="translate(-14.7 -15.7)"/><path class="cls-13" d="M148.4,74.7V85.1a9.6077,9.6077,0,0,1-5.1,4.2,34.7787,34.7787,0,0,1-10.6,2.4,44.8128,44.8128,0,0,1-19.6-2.1c-2.4-.9-4.6-2-5.9-4.5V74.7a10.1577,10.1577,0,0,0,6.2,4.5,46.6746,46.6746,0,0,0,26.7.7C143.4,79.1,146.6,77.9,148.4,74.7Z" transform="translate(-14.7 -15.7)"/><path class="cls-15" d="M148.4,74.7c-1.9,3.2-5,4.4-8.3,5.2a46.6973,46.6973,0,0,1-26.7-.7,10.4426,10.4426,0,0,1-6.2-4.5V64.4c1.7,3.1,4.6,4.2,7.7,5.1a48.1121,48.1121,0,0,0,26.6-.2c2.8-.8,5.4-2,6.9-4.8Z" transform="translate(-14.7 -15.7)"/><path class="cls-15" d="M107.2,85.1a18.2407,18.2407,0,0,0,6,4.5,17.4369,17.4369,0,0,0,4.2,1.3,53.65,53.65,0,0,0,21.4-.1c1.4-.4,3-.9,3-.9.8-.3,1.4-.5,1.6-.6.8-.3,2.6-1.2,5-4.2,0,3.7,0,6.6.1,8.5a5.9274,5.9274,0,0,1-.3,2,5.4978,5.4978,0,0,1-2,2.3,20.9754,20.9754,0,0,1-9.3,3.4,46.88,46.88,0,0,1-23.5-1.4,18.6668,18.6668,0,0,1-3.2-1.5,6.129,6.129,0,0,1-2.6-2.7,6.37,6.37,0,0,1-.5-2.8C107.2,90.8,107.2,88.3,107.2,85.1Z" transform="translate(-14.7 -15.7)"/><path class="cls-12" d="M91.6,148.6a2.602,2.602,0,1,1,2.5-2.6A2.4984,2.4984,0,0,1,91.6,148.6Z" transform="translate(-14.7 -15.7)"/></g><circle class="cls-12" cx="113.3" cy="102.7" r="4.8"/><circle class="cls-12" cx="113.3" cy="111.1" r="1.8"/><path class="cls-13" d="M91.4,50.4H89.9v1.5H82.4V50.4H80.9V48.9H79.4v-9h1.5V38.4h1.5V36.9h6v1.5h1.5v1.5h1.5Zm-9-3V39.9H80.9v7.5Zm4.5-7.5V38.4H82.4v1.5Zm0,9V47.4H82.4v1.5Zm-1.5-4.5V42.9H83.9v1.5Zm3,3V39.9H86.9v7.5Z" transform="translate(-14.7 -15.7)"/><path class="cls-16" d="M104.9,51.9h-4.5V50.4H98.9V42.9H97.4v-3h1.5V38.4h1.5V36.9h3v1.5h1.5Zm-3-3V38.4h-1.5v1.5H98.9v1.5h1.5v7.5Z" transform="translate(-14.7 -15.7)"/><path class="cls-16" d="M162.3,50.1h-1.5v1.5h-7.5V50.1h-1.5V48.6h-1.5v-9h1.5V38.1h1.5V36.6h6v1.5h1.5v1.5h1.5Zm-9-3V39.6h-1.5v7.5Zm4.5-7.5V38.1h-4.5v1.5Zm0,9V47.1h-4.5v1.5Zm-1.5-4.5V42.6h-1.5v1.5Zm3,3V39.6h-1.5v7.5Z" transform="translate(-14.7 -15.7)"/><path class="cls-13" d="M175.8,51.6h-4.5V50.1h-1.5V42.6h-1.5v-3h1.5V38.1h1.5V36.6h3v1.5h1.5Zm-3-3V38.1h-1.5v1.5h-1.5v1.5h1.5v7.5Z" transform="translate(-14.7 -15.7)"/><path class="cls-16" d="M92.2,68.3H90.7v1.5H83.2V68.3H81.7V66.8H80.2v-9h1.5V56.3h1.5V54.8h6v1.5h1.5v1.5h1.5Zm-9-3V57.8H81.7v7.5Zm4.5-7.5V56.3H83.2v1.5Zm0,9V65.3H83.2v1.5Zm-1.5-4.5V60.8H84.7v1.5Zm3,3V57.8H87.7v7.5Z" transform="translate(-14.7 -15.7)"/><path class="cls-13" d="M105.7,69.8h-4.5V68.3H99.7V60.8H98.2v-3h1.5V56.3h1.5V54.8h3v1.5h1.5Zm-3-3V56.3h-1.5v1.5H99.7v1.5h1.5v7.5Z" transform="translate(-14.7 -15.7)"/><path class="cls-13" d="M163.1,68h-1.5v1.5h-7.5V68h-1.5V66.5h-1.5v-9h1.5V56h1.5V54.5h6V56h1.5v1.5h1.5Zm-9-3V57.5h-1.5V65Zm4.5-7.5V56h-4.5v1.5Zm0,9V65h-4.5v1.5ZM157.1,62V60.5h-1.5V62Zm3,3V57.5h-1.5V65Z" transform="translate(-14.7 -15.7)"/><path class="cls-16" d="M176.6,69.5h-4.5V68h-1.5V60.5h-1.5v-3h1.5V56h1.5V54.5h3V56h1.5Zm-3-3V56h-1.5v1.5h-1.5V59h1.5v7.5Z" transform="translate(-14.7 -15.7)"/></g></svg>